<svg width="1600" height="1600" viewBox="0 0 1600 1600" fill="none" xmlns="http://www.w3.org/2000/svg">
<rect width="1600" height="1600" fill="#404E57"/>
<path d="M800 189L1162 397.75V815.25L800 1024L438 815.25V397.75L800 189Z" fill="white"/>
<path d="M799.55 278L1084.1 442.09V770.27L799.55 934.36L515 770.27V442.09L799.55 278Z" fill="url(#paint0_linear_31_1102)"/>
<path d="M800 230L1126 418.25V794.75L800 983L474 794.75V418.25L800 230Z" fill="url(#paint1_linear_31_1102)"/>
<path d="M799.5 277L1084 441.5V770.5L799.5 935L515 770.5V441.5L799.5 277Z" fill="url(#paint2_linear_31_1102)"/>
<path fill-rule="evenodd" clip-rule="evenodd" d="M634.15 506.98L686.29 536.87L679.14 541L630.81 513.28L619.18 506.61L615.95 504.77L611.32 502.11L614.87 495.92L615.95 496.55L623.07 500.63L634.15 506.98Z" fill="url(#paint3_linear_31_1102)"/>
<path fill-rule="evenodd" clip-rule="evenodd" d="M623.08 505.44V458.27L615.95 462.39V507.57L623.08 505.44Z" fill="url(#paint4_linear_31_1102)"/>
<path d="M634.48 504.01C634.48 496.52 628.42 490.46 620.94 490.46C613.46 490.46 607.39 496.53 607.39 504.01C607.39 511.49 613.45 517.56 620.94 517.56C628.43 517.56 634.48 511.49 634.48 504.01Z" fill="url(#paint5_linear_31_1102)"/>
<path fill-rule="evenodd" clip-rule="evenodd" d="M1085 738.03V746.6L990.85 800.79L968.47 813.67L966.76 814.65L966.67 814.49L963.21 808.47L964.66 807.63L972.61 803.03L978.71 799.5L979.73 798.91L987.52 794.42L1085 738.03Z" fill="url(#paint6_linear_31_1102)"/>
<path fill-rule="evenodd" clip-rule="evenodd" d="M802.45 911.57L982.09 805.38L978.55 799.19L802.45 903.01V911.57Z" fill="url(#paint7_linear_31_1102)"/>
<path fill-rule="evenodd" clip-rule="evenodd" d="M981.281 799.8L981.271 799.83L980.831 800.58L980.631 800.93L980.081 801.89L977.721 805.98L974.861 804.34L974.151 803.92L972.611 803.03L972.311 802.87L967.761 800.24L966.981 799.8L965.021 798.67L961.481 796.62L951.141 790.67L958.271 786.54L965.181 790.53L969.351 792.93L974.111 795.68L974.821 796.08L979.731 798.91L979.951 799.04L981.281 799.8Z" fill="url(#paint8_linear_31_1102)"/>
<path d="M964.07 803.67C964.07 811.16 970.13 817.22 977.61 817.22C985.09 817.22 991.15 811.15 991.15 803.67C991.15 796.19 985.09 790.12 977.61 790.12C970.13 790.12 964.07 796.19 964.07 803.67Z" fill="url(#paint9_linear_31_1102)"/>
<path fill-rule="evenodd" clip-rule="evenodd" d="M746.4 880.73L554.3 767.17L557.84 760.98L746.4 872.16V880.72V880.73Z" fill="url(#paint10_linear_31_1102)"/>
<path fill-rule="evenodd" clip-rule="evenodd" d="M540.39 783.63L573.53 764.23L569.97 758.05L533.26 779.35L540.39 783.63Z" fill="url(#paint11_linear_31_1102)"/>
<path d="M552.04 768.29C552.04 760.81 558.1 754.74 565.58 754.74C573.06 754.74 579.12 760.81 579.12 768.29C579.12 775.77 573.06 781.84 565.58 781.84C558.1 781.84 552.04 775.77 552.04 768.29Z" fill="url(#paint12_linear_31_1102)"/>
<path fill-rule="evenodd" clip-rule="evenodd" d="M885.84 447.4L965.61 494.51L962.04 500.68L884.39 455.69L885.84 447.4Z" fill="url(#paint13_linear_31_1102)"/>
<path fill-rule="evenodd" clip-rule="evenodd" d="M962.4 491.89V564.32L955.27 560.2V491.89H962.4Z" fill="url(#paint14_linear_31_1102)"/>
<path d="M945.27 495.07C945.27 502.55 951.33 508.62 958.82 508.62C966.31 508.62 972.36 502.55 972.36 495.07C972.36 487.59 966.3 481.52 958.82 481.52C951.34 481.52 945.27 487.59 945.27 495.07Z" fill="url(#paint15_linear_31_1102)"/>
<path fill-rule="evenodd" clip-rule="evenodd" d="M580.3 483L551.79 466.53V725.15L580.3 743.7V483Z" fill="url(#paint16_linear_31_1102)"/>
<path fill-rule="evenodd" clip-rule="evenodd" d="M580.3 483L687.94 420.78L673.68 396.07L551.78 466.53L580.29 483H580.3Z" fill="url(#paint17_linear_31_1102)"/>
<path fill-rule="evenodd" clip-rule="evenodd" d="M1021.7 483L1050.21 466.53V725.15L1021.7 742.98V483Z" fill="url(#paint18_linear_31_1102)"/>
<path fill-rule="evenodd" clip-rule="evenodd" d="M1021.7 483L914.06 420.78L928.32 396.07L1050.22 466.53L1021.71 483H1021.7Z" fill="url(#paint19_linear_31_1102)"/>
<path d="M1035.96 640.25C1050.13 640.25 1061.62 651.75 1061.62 665.93C1061.62 680.11 1050.13 691.61 1035.96 691.61C1021.79 691.61 1010.3 680.11 1010.3 665.93C1010.3 651.75 1021.79 640.25 1035.96 640.25Z" fill="url(#paint20_radial_31_1102)"/>
<path d="M949.31 395.64C961.48 402.91 965.46 418.67 958.2 430.85C950.94 443.03 935.18 447.01 923.01 439.75C910.84 432.48 906.86 416.72 914.12 404.54C921.38 392.36 937.14 388.38 949.31 395.64Z" fill="url(#paint21_radial_31_1102)"/>
<path d="M687.89 404.54C695.15 416.72 691.17 432.48 679 439.75C666.83 447.02 651.07 443.03 643.81 430.85C636.55 418.67 640.53 402.91 652.7 395.64C664.87 388.37 680.62 392.36 687.89 404.54Z" fill="url(#paint22_radial_31_1102)"/>
<path d="M566.05 596.17C551.88 596.17 540.39 584.67 540.39 570.49C540.39 556.31 551.88 544.81 566.05 544.81C580.22 544.81 591.71 556.31 591.71 570.49C591.71 584.67 580.22 596.17 566.05 596.17Z" fill="url(#paint23_radial_31_1102)"/>
<path d="M868.34 509.93V506.23C879.38 489.14 886.88 467.68 886.88 444.11C886.88 420.54 883.84 395.76 870.45 375.32C855.47 352.47 831.12 341.1 800.62 341.1C770.12 341.1 745.78 352.47 730.8 375.32C717.41 395.76 714.37 421.29 714.37 444.11C714.37 466.93 721.55 489.97 732.91 507.59V509.93L616 577.51V770.95L800.63 877.67L985.26 770.95V577.51L868.36 509.93H868.34ZM956.7 754.47L911.04 780.86V664.98L881.51 797.93L800.61 844.69L800.59 844.71L722.32 799.47L692.46 664.98V782.2L644.47 754.47V593.97L761.38 526.39V498.48C761.38 498.48 761.35 498.45 761.33 498.42L761.36 498.73L760.42 497.24C760.12 496.84 759.83 496.42 759.53 496.01C759.44 495.87 759.33 495.73 759.24 495.61C758.65 494.8 758.08 493.98 757.53 493.14C757.47 493.06 757.4 492.97 757.35 492.87C756.76 491.98 756.18 491.07 755.62 490.14C755.61 490.12 755.61 490.11 755.6 490.08C754.57 488.39 753.59 486.67 752.66 484.88L733.57 454.51L743.04 435.16C744.24 408.76 751.15 387.34 769.56 376.77C769.61 376.75 769.64 376.72 769.69 376.7C770.51 376.24 771.35 375.79 772.22 375.37C772.34 375.31 772.45 375.25 772.57 375.21C773.37 374.82 774.19 374.45 775.04 374.1C775.2 374.03 775.38 373.96 775.55 373.89C776.35 373.58 777.17 373.28 778.01 372.99C778.23 372.92 778.44 372.84 778.66 372.77C779.48 372.5 780.31 372.26 781.16 372.03C781.41 371.96 781.67 371.88 781.92 371.82C782.75 371.6 783.61 371.4 784.47 371.22C784.76 371.15 785.04 371.09 785.33 371.03C786.2 370.86 787.09 370.71 787.99 370.57C788.29 370.51 788.59 370.47 788.89 370.42C789.81 370.29 790.76 370.18 791.72 370.07C792.02 370.05 792.32 370 792.62 369.98C793.65 369.89 794.71 369.82 795.78 369.76C796.03 369.75 796.28 369.73 796.53 369.71C797.85 369.65 799.2 369.62 800.59 369.62H800.61C800.9 369.62 801.18 369.63 801.47 369.63C802.54 369.64 803.62 369.66 804.66 369.71C805.4 369.73 806.12 369.8 806.84 369.85C807.39 369.88 807.96 369.92 808.5 369.97C809.32 370.05 810.11 370.14 810.89 370.25C811.32 370.3 811.76 370.34 812.18 370.4C813.01 370.52 813.82 370.67 814.62 370.8C814.97 370.87 815.32 370.92 815.67 370.99C816.51 371.15 817.32 371.35 818.13 371.53C818.41 371.6 818.71 371.67 819 371.74C819.83 371.95 820.63 372.19 821.44 372.42C821.67 372.5 821.91 372.56 822.14 372.64C822.96 372.89 823.77 373.18 824.56 373.47C824.74 373.54 824.94 373.61 825.13 373.68C825.94 374 826.74 374.34 827.52 374.69C827.66 374.75 827.8 374.82 827.94 374.88C828.75 375.25 829.53 375.64 830.31 376.06L830.59 376.2C831.4 376.64 832.18 377.09 832.95 377.56C833 377.58 833.03 377.62 833.08 377.64C851.1 388.93 857.48 411.19 858.24 438.31L858.29 438.39L866.18 454.51L850.75 479.04L850.62 479.25C847.64 485.82 843.95 491.84 839.79 497.14V526.39L956.7 593.97V754.47Z" fill="white"/>
<path d="M839.78 526.4V497.15C843.94 491.85 847.63 485.83 850.61 479.26L850.74 479.05L866.17 454.52L858.28 438.4L858.23 438.32C857.47 411.2 851.09 388.94 833.07 377.65C833.02 377.63 832.99 377.59 832.94 377.57C832.18 377.1 831.39 376.64 830.58 376.21L830.3 376.07C829.53 375.65 828.74 375.26 827.93 374.89C827.79 374.83 827.65 374.76 827.51 374.7C826.72 374.35 825.93 374.02 825.12 373.69C824.94 373.62 824.74 373.55 824.55 373.48C823.76 373.19 822.96 372.9 822.13 372.65C821.9 372.57 821.66 372.51 821.43 372.43C820.62 372.2 819.82 371.96 818.99 371.75C818.7 371.68 818.4 371.61 818.12 371.54C817.31 371.35 816.5 371.16 815.66 371C815.31 370.93 814.96 370.88 814.61 370.81C813.81 370.67 813 370.52 812.17 370.41C811.74 370.35 811.3 370.31 810.88 370.26C810.09 370.16 809.31 370.06 808.49 369.98C807.95 369.93 807.38 369.9 806.83 369.86C806.1 369.81 805.39 369.74 804.65 369.72C803.61 369.67 802.53 369.65 801.46 369.64C801.17 369.64 800.89 369.63 800.6 369.63H800.58C799.19 369.63 797.84 369.66 796.52 369.72C796.27 369.73 796.02 369.75 795.77 369.77C794.71 369.83 793.64 369.9 792.61 369.99C792.31 370.01 792.01 370.06 791.71 370.08C790.75 370.18 789.8 370.3 788.88 370.43C788.58 370.48 788.28 370.52 787.98 370.58C787.08 370.72 786.19 370.87 785.32 371.04C785.03 371.1 784.75 371.16 784.46 371.23C783.59 371.42 782.74 371.61 781.91 371.83C781.66 371.89 781.4 371.97 781.15 372.04C780.31 372.27 779.47 372.51 778.65 372.78C778.43 372.85 778.22 372.93 778 373C777.16 373.29 776.34 373.59 775.54 373.9C775.37 373.97 775.19 374.04 775.03 374.11C774.17 374.46 773.35 374.83 772.56 375.22C772.44 375.27 772.33 375.32 772.21 375.38C771.34 375.8 770.5 376.25 769.68 376.71C769.63 376.73 769.6 376.76 769.55 376.78C751.14 387.35 744.23 408.77 743.03 435.17L733.56 454.52L752.65 484.89C753.57 486.68 754.56 488.41 755.59 490.09C755.6 490.11 755.6 490.12 755.61 490.15C756.18 491.08 756.75 491.99 757.34 492.88C757.4 492.97 757.47 493.07 757.52 493.15C758.07 493.99 758.64 494.82 759.23 495.62C759.32 495.75 759.43 495.89 759.52 496.02C759.82 496.42 760.11 496.84 760.41 497.25L761.35 498.74L761.32 498.43C761.32 498.43 761.34 498.46 761.37 498.49V526.4L644.46 593.98V754.48L692.45 782.21V664.99L722.31 799.48L800.58 844.72L800.6 844.7L881.5 797.94L911.03 664.99V780.87L956.69 754.48V593.98L839.78 526.4ZM800.96 705.05C767.1 705.05 739.65 677.58 739.65 643.7C739.65 609.82 767.1 582.36 800.96 582.36C834.82 582.36 862.26 609.83 862.26 643.7C862.26 677.57 834.81 705.05 800.96 705.05Z" fill="#404E57"/>
<path fill-rule="evenodd" clip-rule="evenodd" d="M757.42 600.25C752 605.65 747.58 612.06 744.49 619.17L671.16 578.39L694.18 565.09L757.42 600.25Z" fill="url(#paint24_linear_31_1102)"/>
<path fill-rule="evenodd" clip-rule="evenodd" d="M844.41 600.25C849.83 605.65 854.25 612.06 857.34 619.17L930.67 578.39L907.65 565.09L844.41 600.25Z" fill="url(#paint25_linear_31_1102)"/>
<path d="M839.121 643.7C839.121 664.79 822.041 681.89 800.961 681.89C779.881 681.89 762.801 664.79 762.801 643.7C762.801 622.61 779.881 605.52 800.961 605.52C822.041 605.52 839.121 622.62 839.121 643.7Z" fill="url(#paint26_linear_31_1102)"/>
<path d="M800.96 582.35C767.1 582.35 739.65 609.81 739.65 643.7C739.65 677.59 767.1 705.05 800.96 705.05C834.82 705.05 862.26 677.58 862.26 643.7C862.26 609.82 834.81 582.35 800.96 582.35ZM800.96 682.22C779.7 682.22 762.47 664.97 762.47 643.7C762.47 622.43 779.7 605.18 800.96 605.18C822.22 605.18 839.45 622.43 839.45 643.7C839.45 664.97 822.22 682.22 800.96 682.22Z" fill="url(#paint27_radial_31_1102)"/>
<path fill-rule="evenodd" clip-rule="evenodd" d="M762.799 755.14V822.85H762.739L739.989 809.7V755.14H762.799Z" fill="url(#paint28_linear_31_1102)"/>
<path d="M771.35 750.02C771.35 761.05 762.41 769.99 751.39 769.99C740.37 769.99 731.43 761.05 731.43 750.02C731.43 738.99 740.37 730.05 751.39 730.05C762.41 730.05 771.35 738.99 771.35 750.02Z" fill="url(#paint29_radial_31_1102)"/>
<path fill-rule="evenodd" clip-rule="evenodd" d="M862.59 733.279V808.889L839.77 822.089V733.279H862.59Z" fill="url(#paint30_linear_31_1102)"/>
<path d="M871.14 733.28C871.14 744.31 862.2 753.25 851.18 753.25C840.16 753.25 831.22 744.31 831.22 733.28C831.22 722.25 840.16 713.31 851.18 713.31C862.2 713.31 871.14 722.25 871.14 733.28Z" fill="url(#paint31_radial_31_1102)"/>
<path fill-rule="evenodd" clip-rule="evenodd" d="M812.019 788.989V838.129L800.619 844.719H800.569L789.209 838.149V788.989H812.019Z" fill="url(#paint32_linear_31_1102)"/>
<path d="M820.58 787.72C820.58 798.75 811.64 807.69 800.62 807.69C789.6 807.69 780.66 798.75 780.66 787.72C780.66 776.69 789.6 767.75 800.62 767.75C811.64 767.75 820.58 776.69 820.58 787.72Z" fill="url(#paint33_radial_31_1102)"/>
<path d="M277.527 1259.47V1254.08H315.163V1259.47H299.383V1304.26H293.307V1259.47H277.527ZM371.462 1304.26V1254.08H401.747V1259.47H377.538V1276.42H400.179V1281.82H377.538V1298.87H402.139V1304.26H371.462ZM500.001 1269.76H493.924C493.564 1268.01 492.936 1266.48 492.037 1265.15C491.155 1263.83 490.077 1262.72 488.803 1261.82C487.545 1260.91 486.148 1260.22 484.613 1259.76C483.077 1259.31 481.476 1259.08 479.81 1259.08C476.772 1259.08 474.019 1259.84 471.553 1261.38C469.102 1262.92 467.15 1265.18 465.697 1268.17C464.259 1271.16 463.54 1274.82 463.54 1279.17C463.54 1283.51 464.259 1287.18 465.697 1290.17C467.15 1293.16 469.102 1295.42 471.553 1296.96C474.019 1298.49 476.772 1299.26 479.81 1299.26C481.476 1299.26 483.077 1299.03 484.613 1298.58C486.148 1298.12 487.545 1297.44 488.803 1296.54C490.077 1295.63 491.155 1294.51 492.037 1293.18C492.936 1291.84 493.564 1290.31 493.924 1288.58H500.001C499.543 1291.14 498.71 1293.44 497.501 1295.46C496.292 1297.49 494.79 1299.21 492.993 1300.63C491.196 1302.04 489.178 1303.11 486.941 1303.84C484.719 1304.58 482.342 1304.95 479.81 1304.95C475.53 1304.95 471.724 1303.9 468.392 1301.81C465.06 1299.72 462.438 1296.75 460.526 1292.89C458.615 1289.04 457.66 1284.46 457.66 1279.17C457.66 1273.88 458.615 1269.3 460.526 1265.45C462.438 1261.59 465.06 1258.62 468.392 1256.53C471.724 1254.44 475.53 1253.39 479.81 1253.39C482.342 1253.39 484.719 1253.76 486.941 1254.49C489.178 1255.23 491.196 1256.31 492.993 1257.73C494.79 1259.13 496.292 1260.85 497.501 1262.87C498.71 1264.88 499.543 1267.18 500.001 1269.76ZM556.74 1304.26V1254.08H562.817V1276.42H589.574V1254.08H595.651V1304.26H589.574V1281.82H562.817V1304.26H556.74ZM694.529 1254.08V1304.26H688.648L661.303 1264.86H660.813V1304.26H654.736V1254.08H660.617L688.06 1293.58H688.55V1254.08H694.529ZM795.949 1279.17C795.949 1284.46 794.994 1289.04 793.082 1292.89C791.171 1296.75 788.549 1299.72 785.217 1301.81C781.885 1303.9 778.079 1304.95 773.799 1304.95C769.519 1304.95 765.713 1303.9 762.38 1301.81C759.048 1299.72 756.426 1296.75 754.515 1292.89C752.604 1289.04 751.648 1284.46 751.648 1279.17C751.648 1273.88 752.604 1269.3 754.515 1265.45C756.426 1261.59 759.048 1258.62 762.38 1256.53C765.713 1254.44 769.519 1253.39 773.799 1253.39C778.079 1253.39 781.885 1254.44 785.217 1256.53C788.549 1258.62 791.171 1261.59 793.082 1265.45C794.994 1269.3 795.949 1273.88 795.949 1279.17ZM790.069 1279.17C790.069 1274.82 789.342 1271.16 787.888 1268.17C786.45 1265.18 784.498 1262.92 782.032 1261.38C779.581 1259.84 776.837 1259.08 773.799 1259.08C770.76 1259.08 768.008 1259.84 765.541 1261.38C763.091 1262.92 761.139 1265.18 759.685 1268.17C758.248 1271.16 757.529 1274.82 757.529 1279.17C757.529 1283.51 758.248 1287.18 759.685 1290.17C761.139 1293.16 763.091 1295.42 765.541 1296.96C768.008 1298.49 770.76 1299.26 773.799 1299.26C776.837 1299.26 779.581 1298.49 782.032 1296.96C784.498 1295.42 786.45 1293.16 787.888 1290.17C789.342 1287.18 790.069 1283.51 790.069 1279.17ZM853.087 1304.26V1254.08H859.164V1298.87H882.49V1304.26H853.087ZM979.206 1279.17C979.206 1284.46 978.251 1289.04 976.339 1292.89C974.428 1296.75 971.806 1299.72 968.474 1301.81C965.142 1303.9 961.336 1304.95 957.056 1304.95C952.776 1304.95 948.97 1303.9 945.637 1301.81C942.305 1299.72 939.683 1296.75 937.772 1292.89C935.861 1289.04 934.905 1284.46 934.905 1279.17C934.905 1273.88 935.861 1269.3 937.772 1265.45C939.683 1261.59 942.305 1258.62 945.637 1256.53C948.97 1254.44 952.776 1253.39 957.056 1253.39C961.336 1253.39 965.142 1254.44 968.474 1256.53C971.806 1258.62 974.428 1261.59 976.339 1265.45C978.251 1269.3 979.206 1273.88 979.206 1279.17ZM973.326 1279.17C973.326 1274.82 972.599 1271.16 971.145 1268.17C969.707 1265.18 967.755 1262.92 965.289 1261.38C962.838 1259.84 960.094 1259.08 957.056 1259.08C954.017 1259.08 951.265 1259.84 948.798 1261.38C946.348 1262.92 944.396 1265.18 942.942 1268.17C941.505 1271.16 940.786 1274.82 940.786 1279.17C940.786 1283.51 941.505 1287.18 942.942 1290.17C944.396 1293.16 946.348 1295.42 948.798 1296.96C951.265 1298.49 954.017 1299.26 957.056 1299.26C960.094 1299.26 962.838 1298.49 965.289 1296.96C967.755 1295.42 969.707 1293.16 971.145 1290.17C972.599 1287.18 973.326 1283.51 973.326 1279.17ZM1070.65 1269.76C1070.11 1268.11 1069.4 1266.63 1068.52 1265.32C1067.65 1264 1066.61 1262.87 1065.4 1261.94C1064.21 1261.01 1062.86 1260.3 1061.34 1259.81C1059.82 1259.32 1058.15 1259.08 1056.34 1259.08C1053.37 1259.08 1050.66 1259.84 1048.23 1261.38C1045.79 1262.92 1043.86 1265.18 1042.42 1268.17C1040.98 1271.16 1040.26 1274.82 1040.26 1279.17C1040.26 1283.51 1040.99 1287.18 1042.45 1290.17C1043.9 1293.16 1045.87 1295.42 1048.35 1296.96C1050.83 1298.49 1053.63 1299.26 1056.73 1299.26C1059.61 1299.26 1062.14 1298.65 1064.33 1297.42C1066.53 1296.18 1068.25 1294.43 1069.47 1292.18C1070.71 1289.91 1071.33 1287.24 1071.33 1284.17L1073.2 1284.56H1058.1V1279.17H1077.21V1284.56C1077.21 1288.69 1076.33 1292.29 1074.57 1295.34C1072.82 1298.4 1070.4 1300.76 1067.32 1302.45C1064.24 1304.11 1060.72 1304.95 1056.73 1304.95C1052.29 1304.95 1048.38 1303.9 1045.02 1301.81C1041.67 1299.72 1039.06 1296.75 1037.18 1292.89C1035.31 1289.04 1034.38 1284.46 1034.38 1279.17C1034.38 1275.2 1034.91 1271.63 1035.98 1268.46C1037.05 1265.28 1038.57 1262.56 1040.53 1260.33C1042.49 1258.09 1044.81 1256.37 1047.49 1255.18C1050.17 1253.99 1053.12 1253.39 1056.34 1253.39C1058.98 1253.39 1061.45 1253.79 1063.74 1254.59C1066.04 1255.38 1068.09 1256.5 1069.89 1257.95C1071.7 1259.39 1073.21 1261.11 1074.42 1263.12C1075.63 1265.11 1076.46 1267.33 1076.92 1269.76H1070.65ZM1140.62 1254.08V1304.26H1134.54V1254.08H1140.62ZM1199.72 1304.26V1254.08H1230.01V1259.47H1205.8V1276.42H1228.44V1281.82H1205.8V1298.87H1230.4V1304.26H1199.72ZM1315.32 1266.62C1315.03 1264.14 1313.84 1262.21 1311.75 1260.84C1309.66 1259.47 1307.09 1258.78 1304.05 1258.78C1301.83 1258.78 1299.89 1259.14 1298.22 1259.86C1296.57 1260.58 1295.28 1261.57 1294.35 1262.83C1293.44 1264.08 1292.98 1265.51 1292.98 1267.11C1292.98 1268.45 1293.3 1269.6 1293.93 1270.57C1294.59 1271.52 1295.42 1272.31 1296.43 1272.95C1297.45 1273.57 1298.51 1274.08 1299.62 1274.49C1300.73 1274.88 1301.75 1275.2 1302.68 1275.44L1307.78 1276.82C1309.08 1277.16 1310.54 1277.63 1312.14 1278.24C1313.76 1278.84 1315.3 1279.67 1316.77 1280.71C1318.26 1281.74 1319.48 1283.06 1320.45 1284.68C1321.41 1286.3 1321.89 1288.28 1321.89 1290.64C1321.89 1293.35 1321.18 1295.8 1319.76 1297.99C1318.35 1300.18 1316.3 1301.92 1313.58 1303.21C1310.89 1304.5 1307.61 1305.14 1303.76 1305.14C1300.17 1305.14 1297.05 1304.56 1294.42 1303.4C1291.81 1302.24 1289.75 1300.63 1288.25 1298.55C1286.76 1296.48 1285.92 1294.07 1285.73 1291.32H1292C1292.16 1293.22 1292.8 1294.79 1293.91 1296.03C1295.04 1297.25 1296.46 1298.17 1298.17 1298.77C1299.9 1299.36 1301.77 1299.65 1303.76 1299.65C1306.08 1299.65 1308.16 1299.28 1310.01 1298.53C1311.85 1297.76 1313.32 1296.7 1314.39 1295.34C1315.47 1293.97 1316.01 1292.37 1316.01 1290.54C1316.01 1288.87 1315.55 1287.52 1314.61 1286.47C1313.68 1285.43 1312.46 1284.58 1310.94 1283.92C1309.42 1283.27 1307.78 1282.7 1306.01 1282.21L1299.84 1280.44C1295.92 1279.32 1292.81 1277.71 1290.53 1275.62C1288.24 1273.53 1287.1 1270.79 1287.1 1267.41C1287.1 1264.6 1287.86 1262.15 1289.38 1260.06C1290.91 1257.95 1292.97 1256.32 1295.55 1255.16C1298.15 1253.98 1301.05 1253.39 1304.25 1253.39C1307.48 1253.39 1310.36 1253.97 1312.87 1255.13C1315.39 1256.28 1317.38 1257.84 1318.85 1259.84C1320.34 1261.83 1321.12 1264.09 1321.21 1266.62H1315.32Z" fill="white"/>
<path d="M351.47 1146.5H331.561C331.197 1143.92 330.455 1141.64 329.333 1139.64C328.212 1137.61 326.773 1135.88 325.015 1134.45C323.258 1133.03 321.227 1131.94 318.924 1131.18C316.652 1130.42 314.182 1130.05 311.515 1130.05C306.697 1130.05 302.5 1131.24 298.924 1133.64C295.349 1136 292.576 1139.45 290.606 1144C288.636 1148.52 287.652 1154 287.652 1160.45C287.652 1167.09 288.636 1172.67 290.606 1177.18C292.606 1181.7 295.394 1185.11 298.97 1187.41C302.546 1189.71 306.682 1190.86 311.379 1190.86C314.015 1190.86 316.455 1190.52 318.697 1189.82C320.97 1189.12 322.985 1188.11 324.742 1186.77C326.5 1185.41 327.955 1183.76 329.106 1181.82C330.288 1179.88 331.106 1177.67 331.561 1175.18L351.47 1175.27C350.955 1179.55 349.667 1183.67 347.606 1187.64C345.576 1191.58 342.833 1195.11 339.379 1198.23C335.955 1201.32 331.864 1203.77 327.106 1205.59C322.379 1207.38 317.03 1208.27 311.061 1208.27C302.758 1208.27 295.333 1206.39 288.788 1202.64C282.273 1198.88 277.121 1193.44 273.333 1186.32C269.576 1179.2 267.697 1170.58 267.697 1160.45C267.697 1150.3 269.606 1141.67 273.424 1134.55C277.242 1127.42 282.424 1122 288.97 1118.27C295.515 1114.52 302.879 1112.64 311.061 1112.64C316.455 1112.64 321.455 1113.39 326.061 1114.91C330.697 1116.42 334.803 1118.64 338.379 1121.55C341.955 1124.42 344.864 1127.95 347.106 1132.14C349.379 1136.32 350.833 1141.11 351.47 1146.5ZM433.323 1113.91H453.005V1174.36C453.005 1181.15 451.384 1187.09 448.142 1192.18C444.929 1197.27 440.429 1201.24 434.642 1204.09C428.854 1206.91 422.111 1208.32 414.414 1208.32C406.687 1208.32 399.929 1206.91 394.142 1204.09C388.354 1201.24 383.854 1197.27 380.642 1192.18C377.429 1187.09 375.823 1181.15 375.823 1174.36V1113.91H395.505V1172.68C395.505 1176.23 396.278 1179.38 397.823 1182.14C399.399 1184.89 401.611 1187.06 404.46 1188.64C407.308 1190.21 410.626 1191 414.414 1191C418.232 1191 421.551 1190.21 424.369 1188.64C427.217 1187.06 429.414 1184.89 430.96 1182.14C432.536 1179.38 433.323 1176.23 433.323 1172.68V1113.91ZM475.893 1130.14V1113.91H552.347V1130.14H523.847V1207H504.393V1130.14H475.893ZM571.633 1130.14V1113.91H648.087V1130.14H619.587V1207H600.133V1130.14H571.633ZM690.6 1113.91V1207H670.918V1113.91H690.6ZM794.897 1113.91V1207H777.897L737.397 1148.41H736.715V1207H717.033V1113.91H734.306L774.488 1172.45H775.306V1113.91H794.897ZM883.126 1144C882.489 1141.79 881.595 1139.83 880.444 1138.14C879.292 1136.41 877.883 1134.95 876.217 1133.77C874.58 1132.56 872.701 1131.64 870.58 1131C868.489 1130.36 866.171 1130.05 863.626 1130.05C858.868 1130.05 854.686 1131.23 851.08 1133.59C847.504 1135.95 844.717 1139.39 842.717 1143.91C840.717 1148.39 839.717 1153.88 839.717 1160.36C839.717 1166.85 840.701 1172.36 842.671 1176.91C844.641 1181.45 847.429 1184.92 851.035 1187.32C854.641 1189.68 858.898 1190.86 863.807 1190.86C868.262 1190.86 872.065 1190.08 875.217 1188.5C878.398 1186.89 880.823 1184.64 882.489 1181.73C884.186 1178.82 885.035 1175.38 885.035 1171.41L889.035 1172H865.035V1157.18H903.989V1168.91C903.989 1177.09 902.262 1184.12 898.807 1190C895.353 1195.85 890.595 1200.36 884.535 1203.55C878.474 1206.7 871.535 1208.27 863.717 1208.27C854.989 1208.27 847.323 1206.35 840.717 1202.5C834.111 1198.62 828.959 1193.12 825.262 1186C821.595 1178.85 819.762 1170.36 819.762 1160.55C819.762 1153 820.853 1146.27 823.035 1140.36C825.247 1134.42 828.338 1129.39 832.307 1125.27C836.277 1121.15 840.898 1118.02 846.171 1115.86C851.444 1113.71 857.156 1112.64 863.307 1112.64C868.58 1112.64 873.489 1113.41 878.035 1114.95C882.58 1116.47 886.611 1118.62 890.126 1121.41C893.671 1124.2 896.565 1127.52 898.807 1131.36C901.05 1135.18 902.489 1139.39 903.126 1144H883.126ZM968.878 1207V1113.91H1031.61V1130.14H988.56V1152.32H1028.38V1168.55H988.56V1190.77H1031.79V1207H968.878ZM1090.49 1207H1057.49V1113.91H1090.77C1100.13 1113.91 1108.19 1115.77 1114.95 1119.5C1121.71 1123.2 1126.9 1128.52 1130.54 1135.45C1134.21 1142.39 1136.04 1150.7 1136.04 1160.36C1136.04 1170.06 1134.21 1178.39 1130.54 1185.36C1126.9 1192.33 1121.68 1197.68 1114.86 1201.41C1108.07 1205.14 1099.95 1207 1090.49 1207ZM1077.18 1190.14H1089.68C1095.49 1190.14 1100.39 1189.11 1104.36 1187.05C1108.36 1184.95 1111.36 1181.73 1113.36 1177.36C1115.39 1172.97 1116.4 1167.3 1116.4 1160.36C1116.4 1153.48 1115.39 1147.86 1113.36 1143.5C1111.36 1139.14 1108.37 1135.92 1104.4 1133.86C1100.43 1131.8 1095.54 1130.77 1089.72 1130.77H1077.18V1190.14ZM1222.59 1144C1221.95 1141.79 1221.06 1139.83 1219.9 1138.14C1218.75 1136.41 1217.34 1134.95 1215.68 1133.77C1214.04 1132.56 1212.16 1131.64 1210.04 1131C1207.95 1130.36 1205.63 1130.05 1203.09 1130.05C1198.33 1130.05 1194.15 1131.23 1190.54 1133.59C1186.96 1135.95 1184.18 1139.39 1182.18 1143.91C1180.18 1148.39 1179.18 1153.88 1179.18 1160.36C1179.18 1166.85 1180.16 1172.36 1182.13 1176.91C1184.1 1181.45 1186.89 1184.92 1190.49 1187.32C1194.1 1189.68 1198.36 1190.86 1203.27 1190.86C1207.72 1190.86 1211.53 1190.08 1214.68 1188.5C1217.86 1186.89 1220.28 1184.64 1221.95 1181.73C1223.65 1178.82 1224.49 1175.38 1224.49 1171.41L1228.49 1172H1204.49V1157.18H1243.45V1168.91C1243.45 1177.09 1241.72 1184.12 1238.27 1190C1234.81 1195.85 1230.06 1200.36 1223.99 1203.55C1217.93 1206.7 1210.99 1208.27 1203.18 1208.27C1194.45 1208.27 1186.78 1206.35 1180.18 1202.5C1173.57 1198.62 1168.42 1193.12 1164.72 1186C1161.06 1178.85 1159.22 1170.36 1159.22 1160.55C1159.22 1153 1160.31 1146.27 1162.49 1140.36C1164.71 1134.42 1167.8 1129.39 1171.77 1125.27C1175.74 1121.15 1180.36 1118.02 1185.63 1115.86C1190.9 1113.71 1196.62 1112.64 1202.77 1112.64C1208.04 1112.64 1212.95 1113.41 1217.49 1114.95C1222.04 1116.47 1226.07 1118.62 1229.59 1121.41C1233.13 1124.2 1236.03 1127.52 1238.27 1131.36C1240.51 1135.18 1241.95 1139.39 1242.59 1144H1222.59ZM1268.47 1207V1113.91H1331.2V1130.14H1288.16V1152.32H1327.97V1168.55H1288.16V1190.77H1331.38V1207H1268.47Z" fill="white"/>
<line x1="274" y1="1340.38" x2="1326" y2="1340.38" stroke="white" stroke-width="3.76532"/>
<defs>
<linearGradient id="paint0_linear_31_1102" x1="799.55" y1="916.4" x2="799.55" y2="283.32" gradientUnits="userSpaceOnUse">
<stop stop-color="#404E57"/>
<stop offset="1" stop-color="#1D282C"/>
</linearGradient>
<linearGradient id="paint1_linear_31_1102" x1="800" y1="246.106" x2="800" y2="985.309" gradientUnits="userSpaceOnUse">
<stop stop-color="#404E57"/>
<stop offset="1" stop-color="#1D282C"/>
</linearGradient>
<linearGradient id="paint2_linear_31_1102" x1="799.5" y1="916.995" x2="799.5" y2="282.333" gradientUnits="userSpaceOnUse">
<stop stop-color="#404E57"/>
<stop offset="1" stop-color="#1D282C"/>
</linearGradient>
<linearGradient id="paint3_linear_31_1102" x1="659.18" y1="511.57" x2="615.62" y2="536.24" gradientUnits="userSpaceOnUse">
<stop stop-color="#404E57"/>
<stop offset="1" stop-color="#1D282C"/>
</linearGradient>
<linearGradient id="paint4_linear_31_1102" x1="649.56" y1="505.51" x2="601.7" y2="469.53" gradientUnits="userSpaceOnUse">
<stop stop-color="#1D282C"/>
<stop offset="1" stop-color="#404E57"/>
</linearGradient>
<linearGradient id="paint5_linear_31_1102" x1="620.94" y1="514.88" x2="620.94" y2="490.45" gradientUnits="userSpaceOnUse">
<stop stop-color="#D82C3C"/>
<stop offset="1" stop-color="#640E16"/>
</linearGradient>
<linearGradient id="paint6_linear_31_1102" x1="1007.85" y1="766.13" x2="1078.26" y2="806.01" gradientUnits="userSpaceOnUse">
<stop stop-color="#1D282C"/>
<stop offset="1" stop-color="#404E57"/>
</linearGradient>
<linearGradient id="paint7_linear_31_1102" x1="964.45" y1="813.49" x2="831.98" y2="888.52" gradientUnits="userSpaceOnUse">
<stop stop-color="#1D282C"/>
<stop offset="0.998958" stop-color="#404E57"/>
</linearGradient>
<linearGradient id="paint8_linear_31_1102" x1="972.111" y1="793.89" x2="957.401" y2="802.37" gradientUnits="userSpaceOnUse">
<stop stop-color="#404E57"/>
<stop offset="1" stop-color="#1D282C"/>
</linearGradient>
<linearGradient id="paint9_linear_31_1102" x1="977.62" y1="792.79" x2="977.62" y2="817.22" gradientUnits="userSpaceOnUse">
<stop stop-color="#D82C3C"/>
<stop offset="1" stop-color="#640E16"/>
</linearGradient>
<linearGradient id="paint10_linear_31_1102" x1="584.46" y1="782.53" x2="716.94" y2="857.56" gradientUnits="userSpaceOnUse">
<stop stop-color="#1D282C"/>
<stop offset="1" stop-color="#404E57"/>
</linearGradient>
<linearGradient id="paint11_linear_31_1102" x1="560.93" y1="767.52" x2="523.85" y2="788.91" gradientUnits="userSpaceOnUse">
<stop stop-color="#404E57"/>
<stop offset="1" stop-color="#1D282C"/>
</linearGradient>
<linearGradient id="paint12_linear_31_1102" x1="565.58" y1="779.16" x2="565.58" y2="754.73" gradientUnits="userSpaceOnUse">
<stop stop-color="#D82C3C"/>
<stop offset="1" stop-color="#640E16"/>
</linearGradient>
<linearGradient id="paint13_linear_31_1102" x1="945.52" y1="486.42" x2="882.2" y2="450.08" gradientUnits="userSpaceOnUse">
<stop stop-color="#404E57"/>
<stop offset="1" stop-color="#1D282C"/>
</linearGradient>
<linearGradient id="paint14_linear_31_1102" x1="916.63" y1="548.32" x2="995.88" y2="510.35" gradientUnits="userSpaceOnUse">
<stop stop-color="#1D282C"/>
<stop offset="1" stop-color="#404E57"/>
</linearGradient>
<linearGradient id="paint15_linear_31_1102" x1="958.81" y1="484.19" x2="958.81" y2="508.62" gradientUnits="userSpaceOnUse">
<stop stop-color="#D82C3C"/>
<stop offset="1" stop-color="#640E16"/>
</linearGradient>
<linearGradient id="paint16_linear_31_1102" x1="566.05" y1="494.02" x2="566.05" y2="755.81" gradientUnits="userSpaceOnUse">
<stop stop-color="white"/>
<stop offset="0.29" stop-color="#404E57"/>
<stop offset="1" stop-color="white"/>
</linearGradient>
<linearGradient id="paint17_linear_31_1102" x1="548.01" y1="486.62" x2="676.18" y2="409.97" gradientUnits="userSpaceOnUse">
<stop stop-color="#404E57"/>
<stop offset="1" stop-color="white"/>
</linearGradient>
<linearGradient id="paint18_linear_31_1102" x1="1035.96" y1="494.02" x2="1035.96" y2="757.95" gradientUnits="userSpaceOnUse">
<stop stop-color="white"/>
<stop offset="0.71" stop-color="#404E57"/>
<stop offset="1" stop-color="white"/>
</linearGradient>
<linearGradient id="paint19_linear_31_1102" x1="1036.33" y1="408.59" x2="951.4" y2="451.44" gradientUnits="userSpaceOnUse">
<stop stop-color="#404E57"/>
<stop offset="1" stop-color="white"/>
</linearGradient>
<radialGradient id="paint20_radial_31_1102" cx="0" cy="0" r="1" gradientUnits="userSpaceOnUse" gradientTransform="translate(1018.51 665.241) rotate(-90) scale(52.1188 52.1188)">
<stop stop-color="white"/>
<stop offset="1" stop-color="#404E57"/>
</radialGradient>
<radialGradient id="paint21_radial_31_1102" cx="0" cy="0" r="1" gradientUnits="userSpaceOnUse" gradientTransform="translate(923.499 409.76) rotate(-59.2) scale(52.1188 52.1188)">
<stop stop-color="white"/>
<stop offset="1" stop-color="#404E57"/>
</radialGradient>
<radialGradient id="paint22_radial_31_1102" cx="0" cy="0" r="1" gradientUnits="userSpaceOnUse" gradientTransform="translate(672.033 409.101) rotate(-120.8) scale(52.1188)">
<stop stop-color="white"/>
<stop offset="1" stop-color="#404E57"/>
</radialGradient>
<radialGradient id="paint23_radial_31_1102" cx="0" cy="0" r="1" gradientUnits="userSpaceOnUse" gradientTransform="translate(577.758 578.912) rotate(90) scale(52.1188 52.1188)">
<stop stop-color="white"/>
<stop offset="1" stop-color="#404E57"/>
</radialGradient>
<linearGradient id="paint24_linear_31_1102" x1="759.63" y1="613.35" x2="694.05" y2="578.81" gradientUnits="userSpaceOnUse">
<stop stop-color="#404E57"/>
<stop offset="1" stop-color="white"/>
</linearGradient>
<linearGradient id="paint25_linear_31_1102" x1="842.21" y1="613.35" x2="907.79" y2="578.81" gradientUnits="userSpaceOnUse">
<stop stop-color="#404E57"/>
<stop offset="1" stop-color="white"/>
</linearGradient>
<linearGradient id="paint26_linear_31_1102" x1="800.961" y1="613.05" x2="800.961" y2="681.88" gradientUnits="userSpaceOnUse">
<stop stop-color="#D82C3C"/>
<stop offset="1" stop-color="#640E16"/>
</linearGradient>
<radialGradient id="paint27_radial_31_1102" cx="0" cy="0" r="1" gradientUnits="userSpaceOnUse" gradientTransform="translate(802.503 610.915) scale(143.956 143.956)">
<stop stop-color="white"/>
<stop offset="1" stop-color="#404E57"/>
</radialGradient>
<linearGradient id="paint28_linear_31_1102" x1="751.399" y1="754.51" x2="751.399" y2="811.35" gradientUnits="userSpaceOnUse">
<stop stop-color="#404E57"/>
<stop offset="1" stop-color="white"/>
</linearGradient>
<radialGradient id="paint29_radial_31_1102" cx="0" cy="0" r="1" gradientUnits="userSpaceOnUse" gradientTransform="translate(753.144 739.543) scale(40.5304 40.5304)">
<stop stop-color="white"/>
<stop offset="1" stop-color="#404E57"/>
</radialGradient>
<linearGradient id="paint30_linear_31_1102" x1="851.18" y1="733.499" x2="851.18" y2="808.059" gradientUnits="userSpaceOnUse">
<stop stop-color="#404E57"/>
<stop offset="1" stop-color="white"/>
</linearGradient>
<radialGradient id="paint31_radial_31_1102" cx="0" cy="0" r="1" gradientUnits="userSpaceOnUse" gradientTransform="translate(853.311 722.757) scale(40.5304 40.5304)">
<stop stop-color="white"/>
<stop offset="1" stop-color="#404E57"/>
</radialGradient>
<linearGradient id="paint32_linear_31_1102" x1="800.619" y1="791.449" x2="800.619" y2="838.229" gradientUnits="userSpaceOnUse">
<stop stop-color="#404E57"/>
<stop offset="1" stop-color="white"/>
</linearGradient>
<radialGradient id="paint33_radial_31_1102" cx="0" cy="0" r="1" gradientUnits="userSpaceOnUse" gradientTransform="translate(802.549 777.359) scale(40.5304 40.5304)">
<stop stop-color="white"/>
<stop offset="1" stop-color="#404E57"/>
</radialGradient>
</defs>
</svg>
