<svg width="724" height="835" viewBox="0 0 724 835" fill="none" xmlns="http://www.w3.org/2000/svg">
<path d="M362.58 746.15L647 581.72V252.87L362.58 88.4502L78.15 252.87V292.78L52.48 307.61L0 337.93V508.05L52.48 477.73L78.15 462.9V506.89L52.48 521.71L0 552.04V626.69L0.51 626.4L361.42 835L636.68 676.45L636.41 676.29L586.5 646.56L362.58 776.11L52.48 596.7V596.35L78.15 581.53V581.72L362.58 746.15Z" fill="#1D282C"/>
<path d="M672.67 237.89V596.7L586.5 646.56L362.58 776.11L52.4805 596.7V596.36L78.1505 581.53V581.73L362.58 746.15L647 581.73V252.87L362.58 88.45L78.1505 252.87V292.78L52.4805 307.61V237.89L362.58 58.5L672.67 237.89Z" fill="white"/>
<path d="M724 208.61V625.81L636.41 676.29L586.5 646.56L672.67 596.7V237.89L362.58 58.5L52.48 237.89V307.61L0 337.93V208.61L362 0L724 208.61Z" fill="#404E57"/>
<path d="M78.1505 462.91V506.89L52.4805 521.72V477.73L78.1505 462.91Z" fill="white"/>
<path d="M52.48 477.73V521.72L0 552.04V508.06L52.48 477.73Z" fill="#404E57"/>
<path fill-rule="evenodd" clip-rule="evenodd" d="M196.15 318.98L248.29 348.87L241.14 353L192.81 325.28L181.18 318.61L177.95 316.77L173.32 314.11L176.87 307.92L177.95 308.55L185.07 312.63L196.15 318.98Z" fill="url(#paint0_linear_15_2167)"/>
<path fill-rule="evenodd" clip-rule="evenodd" d="M185.08 317.44V270.27L177.95 274.39V319.57L185.08 317.44Z" fill="url(#paint1_linear_15_2167)"/>
<path d="M196.48 316.01C196.48 308.52 190.42 302.46 182.94 302.46C175.46 302.46 169.39 308.53 169.39 316.01C169.39 323.49 175.45 329.56 182.94 329.56C190.43 329.56 196.48 323.49 196.48 316.01Z" fill="url(#paint2_linear_15_2167)"/>
<path fill-rule="evenodd" clip-rule="evenodd" d="M647 550.03V558.6L552.85 612.79L530.47 625.67L528.76 626.65L528.67 626.49L525.21 620.47L526.66 619.63L534.61 615.03L540.71 611.5L541.73 610.91L549.52 606.42L647 550.03Z" fill="url(#paint3_linear_15_2167)"/>
<path fill-rule="evenodd" clip-rule="evenodd" d="M364.45 723.57L544.09 617.38L540.55 611.19L364.45 715.01V723.57Z" fill="url(#paint4_linear_15_2167)"/>
<path fill-rule="evenodd" clip-rule="evenodd" d="M543.28 611.8L543.27 611.83L542.83 612.58L542.63 612.93L542.08 613.89L539.72 617.98L536.86 616.34L536.15 615.92L534.61 615.03L534.31 614.87L529.76 612.24L528.98 611.8L527.02 610.67L523.48 608.62L513.14 602.67L520.27 598.54L527.18 602.53L531.35 604.93L536.11 607.68L536.82 608.08L541.73 610.91L541.95 611.04L543.28 611.8Z" fill="url(#paint5_linear_15_2167)"/>
<path d="M526.07 615.67C526.07 623.16 532.13 629.22 539.61 629.22C547.09 629.22 553.15 623.15 553.15 615.67C553.15 608.19 547.09 602.12 539.61 602.12C532.13 602.12 526.07 608.19 526.07 615.67Z" fill="url(#paint6_linear_15_2167)"/>
<path fill-rule="evenodd" clip-rule="evenodd" d="M308.4 692.73L116.3 579.17L119.84 572.98L308.4 684.16V692.72V692.73Z" fill="url(#paint7_linear_15_2167)"/>
<path fill-rule="evenodd" clip-rule="evenodd" d="M102.39 595.63L135.53 576.23L131.97 570.05L95.2598 591.35L102.39 595.63Z" fill="url(#paint8_linear_15_2167)"/>
<path d="M114.04 580.29C114.04 572.81 120.1 566.74 127.58 566.74C135.06 566.74 141.12 572.81 141.12 580.29C141.12 587.77 135.06 593.84 127.58 593.84C120.1 593.84 114.04 587.77 114.04 580.29Z" fill="url(#paint9_linear_15_2167)"/>
<path fill-rule="evenodd" clip-rule="evenodd" d="M447.84 259.4L527.61 306.51L524.04 312.68L446.39 267.69L447.84 259.4Z" fill="url(#paint10_linear_15_2167)"/>
<path fill-rule="evenodd" clip-rule="evenodd" d="M524.4 303.89V376.32L517.27 372.2V303.89H524.4Z" fill="url(#paint11_linear_15_2167)"/>
<path d="M507.27 307.07C507.27 314.55 513.33 320.62 520.82 320.62C528.31 320.62 534.36 314.55 534.36 307.07C534.36 299.59 528.3 293.52 520.82 293.52C513.34 293.52 507.27 299.59 507.27 307.07Z" fill="url(#paint12_linear_15_2167)"/>
<path fill-rule="evenodd" clip-rule="evenodd" d="M142.3 295L113.79 278.53V537.15L142.3 555.7V295Z" fill="url(#paint13_linear_15_2167)"/>
<path fill-rule="evenodd" clip-rule="evenodd" d="M142.3 295L249.94 232.78L235.68 208.07L113.78 278.53L142.29 295H142.3Z" fill="url(#paint14_linear_15_2167)"/>
<path fill-rule="evenodd" clip-rule="evenodd" d="M583.7 295L612.21 278.53V537.15L583.7 554.98V295Z" fill="url(#paint15_linear_15_2167)"/>
<path fill-rule="evenodd" clip-rule="evenodd" d="M583.7 295L476.06 232.78L490.32 208.07L612.22 278.53L583.71 295H583.7Z" fill="url(#paint16_linear_15_2167)"/>
<path d="M597.96 452.25C612.13 452.25 623.62 463.75 623.62 477.93C623.62 492.11 612.13 503.61 597.96 503.61C583.79 503.61 572.3 492.11 572.3 477.93C572.3 463.75 583.79 452.25 597.96 452.25Z" fill="url(#paint17_radial_15_2167)"/>
<path d="M511.31 207.64C523.48 214.91 527.46 230.67 520.2 242.85C512.94 255.03 497.18 259.01 485.01 251.75C472.84 244.48 468.86 228.72 476.12 216.54C483.38 204.36 499.14 200.38 511.31 207.64Z" fill="url(#paint18_radial_15_2167)"/>
<path d="M249.89 216.54C257.15 228.72 253.17 244.48 241 251.75C228.83 259.02 213.07 255.03 205.81 242.85C198.55 230.67 202.53 214.91 214.7 207.64C226.87 200.37 242.62 204.36 249.89 216.54Z" fill="url(#paint19_radial_15_2167)"/>
<path d="M128.05 408.17C113.88 408.17 102.39 396.67 102.39 382.49C102.39 368.31 113.88 356.81 128.05 356.81C142.22 356.81 153.71 368.31 153.71 382.49C153.71 396.67 142.22 408.17 128.05 408.17Z" fill="url(#paint20_radial_15_2167)"/>
<path d="M430.34 321.93V318.23C441.38 301.14 448.88 279.68 448.88 256.11C448.88 232.54 445.84 207.76 432.45 187.32C417.47 164.47 393.12 153.1 362.62 153.1C332.12 153.1 307.78 164.47 292.8 187.32C279.41 207.76 276.37 233.29 276.37 256.11C276.37 278.93 283.55 301.97 294.91 319.59V321.93L178 389.51V582.95L362.63 689.67L547.26 582.95V389.51L430.36 321.93H430.34ZM518.7 566.47L473.04 592.86V476.98L443.51 609.93L362.61 656.69L362.59 656.71L284.32 611.47L254.46 476.98V594.2L206.47 566.47V405.97L323.38 338.39V310.48C323.38 310.48 323.35 310.45 323.33 310.42L323.36 310.73L322.42 309.24C322.12 308.84 321.83 308.42 321.53 308.01C321.44 307.87 321.33 307.73 321.24 307.61C320.65 306.8 320.08 305.98 319.53 305.14C319.47 305.06 319.4 304.97 319.35 304.87C318.76 303.98 318.18 303.07 317.62 302.14C317.61 302.12 317.61 302.11 317.6 302.08C316.57 300.39 315.59 298.67 314.66 296.88L295.57 266.51L305.04 247.16C306.24 220.76 313.15 199.34 331.56 188.77C331.61 188.75 331.64 188.72 331.69 188.7C332.51 188.24 333.35 187.79 334.22 187.37C334.34 187.31 334.45 187.25 334.57 187.21C335.37 186.82 336.19 186.45 337.04 186.1C337.2 186.03 337.38 185.96 337.55 185.89C338.35 185.58 339.17 185.28 340.01 184.99C340.23 184.92 340.44 184.84 340.66 184.77C341.48 184.5 342.31 184.26 343.16 184.03C343.41 183.96 343.67 183.88 343.92 183.82C344.75 183.6 345.61 183.4 346.47 183.22C346.76 183.15 347.04 183.09 347.33 183.03C348.2 182.86 349.09 182.71 349.99 182.57C350.29 182.51 350.59 182.47 350.89 182.42C351.81 182.29 352.76 182.18 353.72 182.07C354.02 182.05 354.32 182 354.62 181.98C355.65 181.89 356.71 181.82 357.78 181.76C358.03 181.75 358.28 181.73 358.53 181.71C359.85 181.65 361.2 181.62 362.59 181.62H362.61C362.9 181.62 363.18 181.63 363.47 181.63C364.54 181.64 365.62 181.66 366.66 181.71C367.4 181.73 368.12 181.8 368.84 181.85C369.39 181.88 369.96 181.92 370.5 181.97C371.32 182.05 372.11 182.14 372.89 182.25C373.32 182.3 373.76 182.34 374.18 182.4C375.01 182.52 375.82 182.67 376.62 182.8C376.97 182.87 377.32 182.92 377.67 182.99C378.51 183.15 379.32 183.35 380.13 183.53C380.41 183.6 380.71 183.67 381 183.74C381.83 183.95 382.63 184.19 383.44 184.42C383.67 184.5 383.91 184.56 384.14 184.64C384.96 184.89 385.77 185.18 386.56 185.47C386.74 185.54 386.94 185.61 387.13 185.68C387.94 186 388.74 186.34 389.52 186.69C389.66 186.75 389.8 186.82 389.94 186.88C390.75 187.25 391.53 187.64 392.31 188.06L392.59 188.2C393.4 188.64 394.18 189.09 394.95 189.56C395 189.58 395.03 189.62 395.08 189.64C413.1 200.93 419.48 223.19 420.24 250.31L420.29 250.39L428.18 266.51L412.75 291.04L412.62 291.25C409.64 297.82 405.95 303.84 401.79 309.14V338.39L518.7 405.97V566.47Z" fill="white"/>
<path d="M401.78 338.4V309.15C405.94 303.85 409.63 297.83 412.61 291.26L412.74 291.05L428.17 266.52L420.28 250.4L420.23 250.32C419.47 223.2 413.09 200.94 395.07 189.65C395.02 189.63 394.99 189.59 394.94 189.57C394.18 189.1 393.39 188.64 392.58 188.21L392.3 188.07C391.53 187.65 390.74 187.26 389.93 186.89C389.79 186.83 389.65 186.76 389.51 186.7C388.72 186.35 387.93 186.02 387.12 185.69C386.94 185.62 386.74 185.55 386.55 185.48C385.76 185.19 384.96 184.9 384.13 184.65C383.9 184.57 383.66 184.51 383.43 184.43C382.62 184.2 381.82 183.96 380.99 183.75C380.7 183.68 380.4 183.61 380.12 183.54C379.31 183.35 378.5 183.16 377.66 183C377.31 182.93 376.96 182.88 376.61 182.81C375.81 182.67 375 182.52 374.17 182.41C373.74 182.35 373.3 182.31 372.88 182.26C372.09 182.16 371.31 182.06 370.49 181.98C369.95 181.93 369.38 181.9 368.83 181.86C368.1 181.81 367.39 181.74 366.65 181.72C365.61 181.67 364.53 181.65 363.46 181.64C363.17 181.64 362.89 181.63 362.6 181.63H362.58C361.19 181.63 359.84 181.66 358.52 181.72C358.27 181.73 358.02 181.75 357.77 181.77C356.71 181.83 355.64 181.9 354.61 181.99C354.31 182.01 354.01 182.06 353.71 182.08C352.75 182.18 351.8 182.3 350.88 182.43C350.58 182.48 350.28 182.52 349.98 182.58C349.08 182.72 348.19 182.87 347.32 183.04C347.03 183.1 346.75 183.16 346.46 183.23C345.59 183.42 344.74 183.61 343.91 183.83C343.66 183.89 343.4 183.97 343.15 184.04C342.31 184.27 341.47 184.51 340.65 184.78C340.43 184.85 340.22 184.93 340 185C339.16 185.29 338.34 185.59 337.54 185.9C337.37 185.97 337.19 186.04 337.03 186.11C336.17 186.46 335.35 186.83 334.56 187.22C334.44 187.27 334.33 187.32 334.21 187.38C333.34 187.8 332.5 188.25 331.68 188.71C331.63 188.73 331.6 188.76 331.55 188.78C313.14 199.35 306.23 220.77 305.03 247.17L295.56 266.52L314.65 296.89C315.57 298.68 316.56 300.41 317.59 302.09C317.6 302.11 317.6 302.12 317.61 302.15C318.18 303.08 318.75 303.99 319.34 304.88C319.4 304.97 319.47 305.07 319.52 305.15C320.07 305.99 320.64 306.82 321.23 307.62C321.32 307.75 321.43 307.89 321.52 308.02C321.82 308.42 322.11 308.84 322.41 309.25L323.35 310.74L323.32 310.43C323.32 310.43 323.34 310.46 323.37 310.49V338.4L206.46 405.98V566.48L254.45 594.21V476.99L284.31 611.48L362.58 656.72L362.6 656.7L443.5 609.94L473.03 476.99V592.87L518.69 566.48V405.98L401.78 338.4ZM362.96 517.05C329.1 517.05 301.65 489.58 301.65 455.7C301.65 421.82 329.1 394.36 362.96 394.36C396.82 394.36 424.26 421.83 424.26 455.7C424.26 489.57 396.81 517.05 362.96 517.05Z" fill="#404E57"/>
<path fill-rule="evenodd" clip-rule="evenodd" d="M319.42 412.25C314 417.65 309.58 424.06 306.49 431.17L233.16 390.39L256.18 377.09L319.42 412.25Z" fill="url(#paint21_linear_15_2167)"/>
<path fill-rule="evenodd" clip-rule="evenodd" d="M406.41 412.25C411.83 417.65 416.25 424.06 419.34 431.17L492.67 390.39L469.65 377.09L406.41 412.25Z" fill="url(#paint22_linear_15_2167)"/>
<path d="M401.12 455.7C401.12 476.79 384.04 493.89 362.96 493.89C341.88 493.89 324.8 476.79 324.8 455.7C324.8 434.61 341.88 417.52 362.96 417.52C384.04 417.52 401.12 434.62 401.12 455.7Z" fill="url(#paint23_linear_15_2167)"/>
<path d="M362.96 394.35C329.1 394.35 301.65 421.81 301.65 455.7C301.65 489.59 329.1 517.05 362.96 517.05C396.82 517.05 424.26 489.58 424.26 455.7C424.26 421.82 396.81 394.35 362.96 394.35ZM362.96 494.22C341.7 494.22 324.47 476.97 324.47 455.7C324.47 434.43 341.7 417.18 362.96 417.18C384.22 417.18 401.45 434.43 401.45 455.7C401.45 476.97 384.22 494.22 362.96 494.22Z" fill="url(#paint24_radial_15_2167)"/>
<path fill-rule="evenodd" clip-rule="evenodd" d="M324.8 567.14V634.85H324.74L301.99 621.7V567.14H324.8Z" fill="url(#paint25_linear_15_2167)"/>
<path d="M333.35 562.02C333.35 573.05 324.41 581.99 313.39 581.99C302.37 581.99 293.43 573.05 293.43 562.02C293.43 550.99 302.37 542.05 313.39 542.05C324.41 542.05 333.35 550.99 333.35 562.02Z" fill="url(#paint26_radial_15_2167)"/>
<path fill-rule="evenodd" clip-rule="evenodd" d="M424.59 545.279V620.889L401.77 634.089V545.279H424.59Z" fill="url(#paint27_linear_15_2167)"/>
<path d="M433.14 545.28C433.14 556.31 424.2 565.25 413.18 565.25C402.16 565.25 393.22 556.31 393.22 545.28C393.22 534.25 402.16 525.31 413.18 525.31C424.2 525.31 433.14 534.25 433.14 545.28Z" fill="url(#paint28_radial_15_2167)"/>
<path fill-rule="evenodd" clip-rule="evenodd" d="M374.02 600.989V650.129L362.62 656.719H362.57L351.21 650.149V600.989H374.02Z" fill="url(#paint29_linear_15_2167)"/>
<path d="M382.58 599.72C382.58 610.75 373.64 619.69 362.62 619.69C351.6 619.69 342.66 610.75 342.66 599.72C342.66 588.69 351.6 579.75 362.62 579.75C373.64 579.75 382.58 588.69 382.58 599.72Z" fill="url(#paint30_radial_15_2167)"/>
<defs>
<linearGradient id="paint0_linear_15_2167" x1="221.18" y1="323.57" x2="177.62" y2="348.24" gradientUnits="userSpaceOnUse">
<stop stop-color="#404E57"/>
<stop offset="1" stop-color="#1D282C"/>
</linearGradient>
<linearGradient id="paint1_linear_15_2167" x1="211.56" y1="317.51" x2="163.7" y2="281.53" gradientUnits="userSpaceOnUse">
<stop stop-color="#1D282C"/>
<stop offset="1" stop-color="#404E57"/>
</linearGradient>
<linearGradient id="paint2_linear_15_2167" x1="182.94" y1="326.88" x2="182.94" y2="302.45" gradientUnits="userSpaceOnUse">
<stop stop-color="#D82C3C"/>
<stop offset="1" stop-color="#640E16"/>
</linearGradient>
<linearGradient id="paint3_linear_15_2167" x1="569.85" y1="578.13" x2="640.26" y2="618.01" gradientUnits="userSpaceOnUse">
<stop stop-color="#404E57"/>
<stop offset="1" stop-color="#1D282C"/>
</linearGradient>
<linearGradient id="paint4_linear_15_2167" x1="526.45" y1="625.49" x2="393.98" y2="700.52" gradientUnits="userSpaceOnUse">
<stop stop-color="#404E57"/>
<stop offset="1" stop-color="#1D282C"/>
</linearGradient>
<linearGradient id="paint5_linear_15_2167" x1="534.11" y1="605.89" x2="519.4" y2="614.37" gradientUnits="userSpaceOnUse">
<stop stop-color="#404E57"/>
<stop offset="1" stop-color="#1D282C"/>
</linearGradient>
<linearGradient id="paint6_linear_15_2167" x1="539.62" y1="604.79" x2="539.62" y2="629.22" gradientUnits="userSpaceOnUse">
<stop stop-color="#D82C3C"/>
<stop offset="1" stop-color="#640E16"/>
</linearGradient>
<linearGradient id="paint7_linear_15_2167" x1="146.46" y1="594.53" x2="278.94" y2="669.56" gradientUnits="userSpaceOnUse">
<stop stop-color="#404E57"/>
<stop offset="1" stop-color="#1D282C"/>
</linearGradient>
<linearGradient id="paint8_linear_15_2167" x1="122.93" y1="579.52" x2="85.8498" y2="600.91" gradientUnits="userSpaceOnUse">
<stop stop-color="#404E57"/>
<stop offset="1" stop-color="#1D282C"/>
</linearGradient>
<linearGradient id="paint9_linear_15_2167" x1="127.58" y1="591.16" x2="127.58" y2="566.73" gradientUnits="userSpaceOnUse">
<stop stop-color="#D82C3C"/>
<stop offset="1" stop-color="#640E16"/>
</linearGradient>
<linearGradient id="paint10_linear_15_2167" x1="507.52" y1="298.42" x2="444.2" y2="262.08" gradientUnits="userSpaceOnUse">
<stop stop-color="#404E57"/>
<stop offset="1" stop-color="#1D282C"/>
</linearGradient>
<linearGradient id="paint11_linear_15_2167" x1="478.63" y1="360.32" x2="557.88" y2="322.35" gradientUnits="userSpaceOnUse">
<stop stop-color="#1D282C"/>
<stop offset="1" stop-color="#404E57"/>
</linearGradient>
<linearGradient id="paint12_linear_15_2167" x1="520.81" y1="296.19" x2="520.81" y2="320.62" gradientUnits="userSpaceOnUse">
<stop stop-color="#D82C3C"/>
<stop offset="1" stop-color="#640E16"/>
</linearGradient>
<linearGradient id="paint13_linear_15_2167" x1="128.05" y1="306.02" x2="128.05" y2="567.81" gradientUnits="userSpaceOnUse">
<stop stop-color="white"/>
<stop offset="0.29" stop-color="#404E57"/>
<stop offset="1" stop-color="white"/>
</linearGradient>
<linearGradient id="paint14_linear_15_2167" x1="110.01" y1="298.62" x2="238.18" y2="221.97" gradientUnits="userSpaceOnUse">
<stop stop-color="#404E57"/>
<stop offset="1" stop-color="white"/>
</linearGradient>
<linearGradient id="paint15_linear_15_2167" x1="597.96" y1="306.02" x2="597.96" y2="569.95" gradientUnits="userSpaceOnUse">
<stop stop-color="white"/>
<stop offset="0.71" stop-color="#404E57"/>
<stop offset="1" stop-color="white"/>
</linearGradient>
<linearGradient id="paint16_linear_15_2167" x1="598.33" y1="220.59" x2="513.4" y2="263.44" gradientUnits="userSpaceOnUse">
<stop stop-color="#404E57"/>
<stop offset="1" stop-color="white"/>
</linearGradient>
<radialGradient id="paint17_radial_15_2167" cx="0" cy="0" r="1" gradientUnits="userSpaceOnUse" gradientTransform="translate(580.514 477.241) rotate(-90) scale(52.1188 52.1188)">
<stop stop-color="white"/>
<stop offset="1" stop-color="#404E57"/>
</radialGradient>
<radialGradient id="paint18_radial_15_2167" cx="0" cy="0" r="1" gradientUnits="userSpaceOnUse" gradientTransform="translate(485.499 221.76) rotate(-59.2) scale(52.1188 52.1188)">
<stop stop-color="white"/>
<stop offset="1" stop-color="#404E57"/>
</radialGradient>
<radialGradient id="paint19_radial_15_2167" cx="0" cy="0" r="1" gradientUnits="userSpaceOnUse" gradientTransform="translate(234.033 221.101) rotate(-120.8) scale(52.1188)">
<stop stop-color="white"/>
<stop offset="1" stop-color="#404E57"/>
</radialGradient>
<radialGradient id="paint20_radial_15_2167" cx="0" cy="0" r="1" gradientUnits="userSpaceOnUse" gradientTransform="translate(139.758 390.912) rotate(90) scale(52.1188 52.1188)">
<stop stop-color="white"/>
<stop offset="1" stop-color="#404E57"/>
</radialGradient>
<linearGradient id="paint21_linear_15_2167" x1="321.63" y1="425.35" x2="256.05" y2="390.81" gradientUnits="userSpaceOnUse">
<stop stop-color="#404E57"/>
<stop offset="1" stop-color="white"/>
</linearGradient>
<linearGradient id="paint22_linear_15_2167" x1="404.21" y1="425.35" x2="469.79" y2="390.81" gradientUnits="userSpaceOnUse">
<stop stop-color="#404E57"/>
<stop offset="1" stop-color="white"/>
</linearGradient>
<linearGradient id="paint23_linear_15_2167" x1="362.96" y1="425.05" x2="362.96" y2="493.88" gradientUnits="userSpaceOnUse">
<stop stop-color="#D82C3C"/>
<stop offset="1" stop-color="#640E16"/>
</linearGradient>
<radialGradient id="paint24_radial_15_2167" cx="0" cy="0" r="1" gradientUnits="userSpaceOnUse" gradientTransform="translate(364.503 422.915) scale(143.956 143.956)">
<stop stop-color="white"/>
<stop offset="1" stop-color="#404E57"/>
</radialGradient>
<linearGradient id="paint25_linear_15_2167" x1="313.4" y1="566.51" x2="313.4" y2="623.35" gradientUnits="userSpaceOnUse">
<stop stop-color="#404E57"/>
<stop offset="1" stop-color="white"/>
</linearGradient>
<radialGradient id="paint26_radial_15_2167" cx="0" cy="0" r="1" gradientUnits="userSpaceOnUse" gradientTransform="translate(315.145 551.543) scale(40.5304 40.5304)">
<stop stop-color="white"/>
<stop offset="1" stop-color="#404E57"/>
</radialGradient>
<linearGradient id="paint27_linear_15_2167" x1="413.18" y1="545.499" x2="413.18" y2="620.059" gradientUnits="userSpaceOnUse">
<stop stop-color="#404E57"/>
<stop offset="1" stop-color="white"/>
</linearGradient>
<radialGradient id="paint28_radial_15_2167" cx="0" cy="0" r="1" gradientUnits="userSpaceOnUse" gradientTransform="translate(415.311 534.757) scale(40.5304 40.5304)">
<stop stop-color="white"/>
<stop offset="1" stop-color="#404E57"/>
</radialGradient>
<linearGradient id="paint29_linear_15_2167" x1="362.62" y1="603.449" x2="362.62" y2="650.229" gradientUnits="userSpaceOnUse">
<stop stop-color="#404E57"/>
<stop offset="1" stop-color="white"/>
</linearGradient>
<radialGradient id="paint30_radial_15_2167" cx="0" cy="0" r="1" gradientUnits="userSpaceOnUse" gradientTransform="translate(364.549 589.359) scale(40.5304 40.5304)">
<stop stop-color="white"/>
<stop offset="1" stop-color="#404E57"/>
</radialGradient>
</defs>
</svg>
