<svg width="3254" height="1600" viewBox="0 0 3254 1600" fill="none" xmlns="http://www.w3.org/2000/svg">
<rect width="3254" height="1600" fill="#404E57"/>
<path d="M1307.01 861.402V852.523H1359.91V861.402H1338.58V920.887H1328.3V861.402H1307.01ZM1439.29 920.887V852.523H1482.15V861.402H1449.6V882.232H1479.91V891.078H1449.6V912.007H1482.55V920.887H1439.29ZM1620.39 874.755H1609.97C1609.57 872.529 1608.82 870.571 1607.73 868.88C1606.64 867.188 1605.31 865.753 1603.73 864.574C1602.15 863.394 1600.38 862.504 1598.42 861.903C1596.49 861.302 1594.43 861.002 1592.25 861.002C1588.31 861.002 1584.78 861.992 1581.66 863.973C1578.57 865.953 1576.12 868.857 1574.32 872.685C1572.54 876.513 1571.65 881.186 1571.65 886.705C1571.65 892.268 1572.54 896.964 1574.32 900.792C1576.12 904.619 1578.58 907.512 1581.7 909.471C1584.81 911.429 1588.32 912.408 1592.21 912.408C1594.37 912.408 1596.42 912.119 1598.35 911.54C1600.31 910.939 1602.08 910.06 1603.66 908.903C1605.24 907.746 1606.58 906.333 1607.67 904.664C1608.78 902.972 1609.55 901.036 1609.97 898.855L1620.39 898.889C1619.83 902.249 1618.75 905.342 1617.15 908.169C1615.57 910.973 1613.53 913.398 1611.04 915.446C1608.57 917.471 1605.74 919.04 1602.56 920.152C1599.38 921.265 1595.91 921.821 1592.15 921.821C1586.23 921.821 1580.95 920.419 1576.32 917.615C1571.69 914.789 1568.04 910.75 1565.37 905.498C1562.73 900.246 1561.4 893.982 1561.4 886.705C1561.4 879.406 1562.74 873.141 1565.41 867.912C1568.08 862.66 1571.73 858.632 1576.36 855.828C1580.99 853.002 1586.25 851.588 1592.15 851.588C1595.77 851.588 1599.16 852.111 1602.29 853.157C1605.45 854.181 1608.29 855.694 1610.81 857.697C1613.32 859.678 1615.4 862.103 1617.05 864.974C1618.69 867.823 1619.81 871.083 1620.39 874.755ZM1700.41 920.887V852.523H1710.72V882.232H1744.8V852.523H1755.15V920.887H1744.8V891.078H1710.72V920.887H1700.41ZM1893.03 852.523V920.887H1883.55L1848.8 870.749H1848.17V920.887H1837.85V852.523H1847.4L1882.18 902.728H1882.82V852.523H1893.03ZM2035.14 886.705C2035.14 894.004 2033.81 900.28 2031.14 905.532C2028.47 910.761 2024.81 914.789 2020.15 917.615C2015.53 920.419 2010.26 921.821 2004.37 921.821C1998.45 921.821 1993.16 920.419 1988.51 917.615C1983.88 914.789 1980.23 910.75 1977.56 905.498C1974.89 900.246 1973.56 893.982 1973.56 886.705C1973.56 879.406 1974.89 873.141 1977.56 867.912C1980.23 862.66 1983.88 858.632 1988.51 855.828C1993.16 853.002 1998.45 851.588 2004.37 851.588C2010.26 851.588 2015.53 853.002 2020.15 855.828C2024.81 858.632 2028.47 862.66 2031.14 867.912C2033.81 873.141 2035.14 879.406 2035.14 886.705ZM2024.93 886.705C2024.93 881.141 2024.03 876.457 2022.22 872.652C2020.44 868.824 2018 865.931 2014.88 863.973C2011.79 861.992 2008.28 861.002 2004.37 861.002C2000.43 861.002 1996.91 861.992 1993.82 863.973C1990.72 865.931 1988.28 868.824 1986.47 872.652C1984.69 876.457 1983.8 881.141 1983.8 886.705C1983.8 892.268 1984.69 896.964 1986.47 900.792C1988.28 904.597 1990.72 907.49 1993.82 909.471C1996.91 911.429 2000.43 912.408 2004.37 912.408C2008.28 912.408 2011.79 911.429 2014.88 909.471C2018 907.49 2020.44 904.597 2022.22 900.792C2024.03 896.964 2024.93 892.268 2024.93 886.705ZM2115.68 920.887V852.523H2126V912.007H2156.97V920.887H2115.68ZM2293.14 886.705C2293.14 894.004 2291.81 900.28 2289.14 905.532C2286.47 910.761 2282.81 914.789 2278.16 917.615C2273.53 920.419 2268.26 921.821 2262.37 921.821C2256.45 921.821 2251.16 920.419 2246.51 917.615C2241.88 914.789 2238.23 910.75 2235.56 905.498C2232.89 900.246 2231.56 893.982 2231.56 886.705C2231.56 879.406 2232.89 873.141 2235.56 867.912C2238.23 862.66 2241.88 858.632 2246.51 855.828C2251.16 853.002 2256.45 851.588 2262.37 851.588C2268.26 851.588 2273.53 853.002 2278.16 855.828C2282.81 858.632 2286.47 862.66 2289.14 867.912C2291.81 873.141 2293.14 879.406 2293.14 886.705ZM2282.93 886.705C2282.93 881.141 2282.03 876.457 2280.22 872.652C2278.44 868.824 2276 865.931 2272.88 863.973C2269.79 861.992 2266.28 861.002 2262.37 861.002C2258.43 861.002 2254.91 861.992 2251.82 863.973C2248.72 865.931 2246.28 868.824 2244.47 872.652C2242.69 876.457 2241.8 881.141 2241.8 886.705C2241.8 892.268 2242.69 896.964 2244.47 900.792C2246.28 904.597 2248.72 907.49 2251.82 909.471C2254.91 911.429 2258.43 912.408 2262.37 912.408C2266.28 912.408 2269.79 911.429 2272.88 909.471C2276 907.49 2278.44 904.597 2280.22 900.792C2282.03 896.964 2282.93 892.268 2282.93 886.705ZM2419.95 874.12C2419.3 872.095 2418.44 870.282 2417.34 868.679C2416.28 867.055 2415 865.675 2413.51 864.54C2412.02 863.383 2410.31 862.504 2408.4 861.903C2406.51 861.302 2404.43 861.002 2402.16 861.002C2398.31 861.002 2394.84 861.992 2391.74 863.973C2388.65 865.953 2386.2 868.857 2384.4 872.685C2382.62 876.49 2381.73 881.153 2381.73 886.672C2381.73 892.213 2382.63 896.897 2384.43 900.725C2386.23 904.552 2388.7 907.457 2391.84 909.437C2394.98 911.418 2398.55 912.408 2402.56 912.408C2406.27 912.408 2409.51 911.651 2412.27 910.138C2415.05 908.625 2417.2 906.489 2418.71 903.729C2420.25 900.947 2421.02 897.676 2421.02 893.915L2423.69 894.416H2404.13V885.904H2431V893.681C2431 899.423 2429.77 904.408 2427.33 908.636C2424.9 912.842 2421.54 916.091 2417.24 918.383C2412.97 920.675 2408.08 921.821 2402.56 921.821C2396.37 921.821 2390.94 920.397 2386.27 917.549C2381.62 914.7 2377.99 910.661 2375.39 905.431C2372.78 900.18 2371.48 893.949 2371.48 886.738C2371.48 881.286 2372.24 876.39 2373.75 872.051C2375.26 867.711 2377.39 864.028 2380.13 861.002C2382.88 857.953 2386.12 855.627 2389.84 854.025C2393.58 852.401 2397.66 851.588 2402.09 851.588C2405.78 851.588 2409.22 852.134 2412.4 853.224C2415.61 854.315 2418.46 855.861 2420.95 857.864C2423.46 859.867 2425.55 862.248 2427.19 865.007C2428.84 867.745 2429.95 870.782 2430.53 874.12H2419.95ZM2522.09 852.523V920.887H2511.77V852.523H2522.09ZM2604.79 920.887V852.523H2647.65V861.402H2615.1V882.232H2645.41V891.078H2615.1V912.007H2648.05V920.887H2604.79ZM2766.39 870.482C2766.04 867.322 2764.57 864.874 2761.99 863.138C2759.4 861.38 2756.16 860.501 2752.24 860.501C2749.43 860.501 2747.01 860.946 2744.96 861.836C2742.91 862.704 2741.32 863.906 2740.19 865.441C2739.08 866.955 2738.52 868.679 2738.52 870.615C2738.52 872.24 2738.9 873.642 2739.65 874.821C2740.43 876.001 2741.45 876.991 2742.69 877.792C2743.96 878.571 2745.32 879.228 2746.76 879.762C2748.21 880.274 2749.6 880.696 2750.94 881.03L2757.61 882.766C2759.79 883.3 2762.03 884.023 2764.32 884.936C2766.61 885.848 2768.74 887.05 2770.7 888.541C2772.66 890.032 2774.24 891.879 2775.44 894.082C2776.66 896.285 2777.27 898.922 2777.27 901.993C2777.27 905.865 2776.27 909.304 2774.27 912.308C2772.29 915.312 2769.41 917.682 2765.62 919.418C2761.86 921.154 2757.31 922.022 2751.97 922.022C2746.85 922.022 2742.42 921.209 2738.69 919.585C2734.95 917.96 2732.02 915.657 2729.91 912.675C2727.79 909.671 2726.62 906.11 2726.4 901.993H2736.75C2736.95 904.463 2737.75 906.522 2739.15 908.169C2740.58 909.793 2742.39 911.006 2744.59 911.807C2746.82 912.586 2749.26 912.975 2751.9 912.975C2754.82 912.975 2757.41 912.519 2759.68 911.607C2761.97 910.672 2763.78 909.382 2765.09 907.735C2766.4 906.066 2767.06 904.118 2767.06 901.893C2767.06 899.868 2766.48 898.21 2765.32 896.919C2764.19 895.629 2762.64 894.56 2760.68 893.715C2758.75 892.869 2756.56 892.124 2754.11 891.478L2746.03 889.275C2740.56 887.784 2736.22 885.592 2733.01 882.699C2729.83 879.806 2728.24 875.979 2728.24 871.216C2728.24 867.277 2729.31 863.839 2731.44 860.902C2733.58 857.964 2736.47 855.683 2740.12 854.059C2743.77 852.412 2747.89 851.588 2752.47 851.588C2757.1 851.588 2761.18 852.401 2764.72 854.025C2768.28 855.65 2771.09 857.886 2773.13 860.735C2775.18 863.561 2776.25 866.81 2776.34 870.482H2766.39Z" fill="white"/>
<line x1="1303" y1="970.215" x2="2775" y2="970.215" stroke="white" stroke-width="5.56905"/>
<path d="M1410 699.504H1381.53C1381.01 695.821 1379.95 692.55 1378.35 689.691C1376.75 686.788 1374.69 684.319 1372.18 682.283C1369.66 680.246 1366.76 678.687 1363.47 677.604C1360.22 676.521 1356.69 675.979 1352.87 675.979C1345.99 675.979 1339.99 677.69 1334.87 681.113C1329.76 684.492 1325.8 689.431 1322.98 695.93C1320.16 702.385 1318.76 710.227 1318.76 719.455C1318.76 728.942 1320.16 736.914 1322.98 743.369C1325.84 749.825 1329.83 754.699 1334.94 757.991C1340.05 761.284 1345.96 762.93 1352.68 762.93C1356.45 762.93 1359.94 762.432 1363.14 761.435C1366.39 760.439 1369.27 758.988 1371.79 757.081C1374.3 755.132 1376.38 752.771 1378.02 749.998C1379.71 747.225 1380.88 744.062 1381.53 740.51L1410 740.64C1409.26 746.749 1407.42 752.641 1404.47 758.316C1401.57 763.948 1397.65 768.995 1392.71 773.458C1387.81 777.877 1381.97 781.386 1375.16 783.985C1368.41 786.542 1360.76 787.82 1352.22 787.82C1340.35 787.82 1329.74 785.134 1320.38 779.761C1311.07 774.389 1303.7 766.613 1298.29 756.431C1292.91 746.25 1290.23 733.925 1290.23 719.455C1290.23 704.941 1292.96 692.594 1298.42 682.413C1303.88 672.232 1311.28 664.477 1320.64 659.148C1330 653.776 1340.53 651.089 1352.22 651.089C1359.94 651.089 1367.08 652.173 1373.67 654.339C1380.3 656.505 1386.17 659.668 1391.28 663.827C1396.39 667.942 1400.55 672.99 1403.76 678.968C1407.01 684.947 1409.09 691.792 1410 699.504ZM1525.19 652.909H1553.33V739.34C1553.33 749.045 1551.01 757.536 1546.38 764.815C1541.78 772.093 1535.35 777.768 1527.08 781.841C1518.8 785.87 1509.16 787.885 1498.16 787.885C1487.11 787.885 1477.45 785.87 1469.17 781.841C1460.9 777.768 1454.47 772.093 1449.87 764.815C1445.28 757.536 1442.98 749.045 1442.98 739.34V652.909H1471.12V736.936C1471.12 742.005 1472.23 746.51 1474.44 750.453C1476.69 754.395 1479.85 757.493 1483.93 759.746C1488 761.999 1492.74 763.125 1498.16 763.125C1503.62 763.125 1508.36 761.999 1512.39 759.746C1516.46 757.493 1519.6 754.395 1521.81 750.453C1524.07 746.51 1525.19 742.005 1525.19 736.936V652.909ZM1584.22 676.109V652.909H1693.53V676.109H1652.78V786H1624.97V676.109H1584.22ZM1719.27 676.109V652.909H1828.58V676.109H1787.83V786H1760.02V676.109H1719.27ZM1887.53 652.909V786H1859.39V652.909H1887.53ZM2034.81 652.909V786H2010.5L1952.6 702.233H1951.63V786H1923.49V652.909H1948.18L2005.63 736.611H2006.8V652.909H2034.81ZM2159.12 695.93C2158.21 692.767 2156.93 689.973 2155.28 687.547C2153.64 685.077 2151.62 682.998 2149.24 681.308C2146.9 679.575 2144.22 678.254 2141.18 677.344C2138.19 676.434 2134.88 675.979 2131.24 675.979C2124.44 675.979 2118.46 677.669 2113.3 681.048C2108.19 684.427 2104.21 689.344 2101.35 695.8C2098.49 702.212 2097.06 710.053 2097.06 719.325C2097.06 728.596 2098.47 736.481 2101.28 742.979C2104.1 749.478 2108.08 754.439 2113.24 757.861C2118.39 761.24 2124.48 762.93 2131.5 762.93C2137.87 762.93 2143.31 761.804 2147.81 759.551C2152.36 757.255 2155.83 754.027 2158.21 749.868C2160.63 745.709 2161.85 740.792 2161.85 735.116L2167.57 735.961H2133.25V714.776H2188.95V731.542C2188.95 743.239 2186.48 753.29 2181.54 761.695C2176.6 770.057 2169.8 776.512 2161.13 781.061C2152.47 785.567 2142.55 787.82 2131.37 787.82C2118.89 787.82 2107.93 785.069 2098.49 779.566C2089.04 774.021 2081.68 766.158 2076.39 755.977C2071.15 745.752 2068.53 733.621 2068.53 719.585C2068.53 708.797 2070.09 699.179 2073.21 690.731C2076.37 682.239 2080.79 675.048 2086.46 669.156C2092.14 663.263 2098.75 658.779 2106.29 655.703C2113.82 652.627 2121.99 651.089 2130.78 651.089C2138.32 651.089 2145.34 652.194 2151.84 654.404C2158.34 656.57 2164.1 659.646 2169.13 663.632C2174.2 667.618 2178.33 672.361 2181.54 677.864C2184.74 683.322 2186.8 689.344 2187.71 695.93H2159.12ZM2278.06 786V652.909H2367.74V676.109H2306.2V707.822H2363.12V731.022H2306.2V762.8H2368V786H2278.06ZM2450.1 786H2402.92V652.909H2450.49C2463.88 652.909 2475.4 655.574 2485.06 660.902C2494.72 666.188 2502.15 673.791 2507.35 683.712C2512.59 693.634 2515.22 705.504 2515.22 719.325C2515.22 733.188 2512.59 745.102 2507.35 755.067C2502.15 765.031 2494.68 772.678 2484.93 778.007C2475.23 783.336 2463.62 786 2450.1 786ZM2431.06 761.89H2448.93C2457.25 761.89 2464.24 760.417 2469.92 757.471C2475.64 754.482 2479.93 749.868 2482.79 743.629C2485.69 737.347 2487.14 729.246 2487.14 719.325C2487.14 709.49 2485.69 701.453 2482.79 695.215C2479.93 688.976 2475.66 684.384 2469.99 681.438C2464.31 678.492 2457.31 677.019 2448.99 677.019H2431.06V761.89ZM2637.12 695.93C2636.21 692.767 2634.93 689.973 2633.29 687.547C2631.64 685.077 2629.63 682.998 2627.24 681.308C2624.9 679.575 2622.22 678.254 2619.18 677.344C2616.19 676.434 2612.88 675.979 2609.24 675.979C2602.44 675.979 2596.46 677.669 2591.31 681.048C2586.19 684.427 2582.21 689.344 2579.35 695.8C2576.49 702.212 2575.06 710.053 2575.06 719.325C2575.06 728.596 2576.47 736.481 2579.28 742.979C2582.1 749.478 2586.08 754.439 2591.24 757.861C2596.4 761.24 2602.48 762.93 2609.5 762.93C2615.87 762.93 2621.31 761.804 2625.81 759.551C2630.36 757.255 2633.83 754.027 2636.21 749.868C2638.64 745.709 2639.85 740.792 2639.85 735.116L2645.57 735.961H2611.26V714.776H2666.95V731.542C2666.95 743.239 2664.48 753.29 2659.54 761.695C2654.6 770.057 2647.8 776.512 2639.13 781.061C2630.47 785.567 2620.55 787.82 2609.37 787.82C2596.89 787.82 2585.93 785.069 2576.49 779.566C2567.04 774.021 2559.68 766.158 2554.39 755.977C2549.15 745.752 2546.53 733.621 2546.53 719.585C2546.53 708.797 2548.09 699.179 2551.21 690.731C2554.37 682.239 2558.79 675.048 2564.47 669.156C2570.14 663.263 2576.75 658.779 2584.29 655.703C2591.83 652.627 2599.99 651.089 2608.79 651.089C2616.32 651.089 2623.34 652.194 2629.84 654.404C2636.34 656.57 2642.1 659.646 2647.13 663.632C2652.2 667.618 2656.33 672.361 2659.54 677.864C2662.75 683.322 2664.8 689.344 2665.71 695.93H2637.12ZM2700.9 786V652.909H2790.58V676.109H2729.03V707.822H2785.96V731.022H2729.03V762.8H2790.84V786H2700.9Z" fill="white"/>
<path d="M803 382L1165 590.75V1008.25L803 1217L441 1008.25V590.75L803 382Z" fill="white"/>
<path d="M802.55 471L1087.1 635.09V963.27L802.55 1127.36L518 963.27V635.09L802.55 471Z" fill="url(#paint0_linear_31_1107)"/>
<path d="M803 423L1129 611.25V987.75L803 1176L477 987.75V611.25L803 423Z" fill="url(#paint1_linear_31_1107)"/>
<path d="M802.5 470L1087 634.5V963.5L802.5 1128L518 963.5V634.5L802.5 470Z" fill="url(#paint2_linear_31_1107)"/>
<path fill-rule="evenodd" clip-rule="evenodd" d="M637.15 699.98L689.29 729.87L682.14 734L633.81 706.28L622.18 699.61L618.95 697.77L614.32 695.11L617.87 688.92L618.95 689.55L626.07 693.63L637.15 699.98Z" fill="url(#paint3_linear_31_1107)"/>
<path fill-rule="evenodd" clip-rule="evenodd" d="M626.079 698.44V651.27L618.949 655.39V700.57L626.079 698.44Z" fill="url(#paint4_linear_31_1107)"/>
<path d="M637.48 697.01C637.48 689.52 631.42 683.46 623.94 683.46C616.46 683.46 610.39 689.53 610.39 697.01C610.39 704.49 616.45 710.56 623.94 710.56C631.43 710.56 637.48 704.49 637.48 697.01Z" fill="url(#paint5_linear_31_1107)"/>
<path fill-rule="evenodd" clip-rule="evenodd" d="M1088 931.03V939.6L993.85 993.79L971.47 1006.67L969.76 1007.65L969.67 1007.49L966.21 1001.47L967.66 1000.63L975.61 996.03L981.71 992.5L982.73 991.91L990.52 987.42L1088 931.03Z" fill="url(#paint6_linear_31_1107)"/>
<path fill-rule="evenodd" clip-rule="evenodd" d="M805.45 1104.57L985.09 998.38L981.55 992.19L805.45 1096.01V1104.57Z" fill="url(#paint7_linear_31_1107)"/>
<path fill-rule="evenodd" clip-rule="evenodd" d="M984.281 992.8L984.271 992.83L983.831 993.58L983.631 993.93L983.081 994.89L980.721 998.98L977.861 997.34L977.151 996.92L975.611 996.03L975.311 995.87L970.761 993.24L969.981 992.8L968.021 991.67L964.481 989.62L954.141 983.67L961.271 979.54L968.181 983.53L972.351 985.93L977.111 988.68L977.821 989.08L982.731 991.91L982.951 992.04L984.281 992.8Z" fill="url(#paint8_linear_31_1107)"/>
<path d="M967.07 996.67C967.07 1004.16 973.13 1010.22 980.61 1010.22C988.09 1010.22 994.15 1004.15 994.15 996.67C994.15 989.19 988.09 983.12 980.61 983.12C973.13 983.12 967.07 989.19 967.07 996.67Z" fill="url(#paint9_linear_31_1107)"/>
<path fill-rule="evenodd" clip-rule="evenodd" d="M749.4 1073.73L557.3 960.17L560.84 953.98L749.4 1065.16V1073.72V1073.73Z" fill="url(#paint10_linear_31_1107)"/>
<path fill-rule="evenodd" clip-rule="evenodd" d="M543.39 976.63L576.53 957.23L572.97 951.05L536.26 972.35L543.39 976.63Z" fill="url(#paint11_linear_31_1107)"/>
<path d="M555.04 961.29C555.04 953.81 561.1 947.74 568.58 947.74C576.06 947.74 582.12 953.81 582.12 961.29C582.12 968.77 576.06 974.84 568.58 974.84C561.1 974.84 555.04 968.77 555.04 961.29Z" fill="url(#paint12_linear_31_1107)"/>
<path fill-rule="evenodd" clip-rule="evenodd" d="M888.84 640.4L968.61 687.51L965.04 693.68L887.39 648.69L888.84 640.4Z" fill="url(#paint13_linear_31_1107)"/>
<path fill-rule="evenodd" clip-rule="evenodd" d="M965.4 684.89V757.32L958.27 753.2V684.89H965.4Z" fill="url(#paint14_linear_31_1107)"/>
<path d="M948.27 688.07C948.27 695.55 954.33 701.62 961.82 701.62C969.31 701.62 975.36 695.55 975.36 688.07C975.36 680.59 969.3 674.52 961.82 674.52C954.34 674.52 948.27 680.59 948.27 688.07Z" fill="url(#paint15_linear_31_1107)"/>
<path fill-rule="evenodd" clip-rule="evenodd" d="M583.3 676L554.79 659.53V918.15L583.3 936.7V676Z" fill="url(#paint16_linear_31_1107)"/>
<path fill-rule="evenodd" clip-rule="evenodd" d="M583.3 676L690.94 613.78L676.68 589.07L554.78 659.53L583.29 676H583.3Z" fill="url(#paint17_linear_31_1107)"/>
<path fill-rule="evenodd" clip-rule="evenodd" d="M1024.7 676L1053.21 659.53V918.15L1024.7 935.98V676Z" fill="url(#paint18_linear_31_1107)"/>
<path fill-rule="evenodd" clip-rule="evenodd" d="M1024.7 676L917.06 613.78L931.32 589.07L1053.22 659.53L1024.71 676H1024.7Z" fill="url(#paint19_linear_31_1107)"/>
<path d="M1038.96 833.25C1053.13 833.25 1064.62 844.75 1064.62 858.93C1064.62 873.11 1053.13 884.61 1038.96 884.61C1024.79 884.61 1013.3 873.11 1013.3 858.93C1013.3 844.75 1024.79 833.25 1038.96 833.25Z" fill="url(#paint20_radial_31_1107)"/>
<path d="M952.31 588.64C964.48 595.91 968.46 611.67 961.2 623.85C953.94 636.03 938.18 640.01 926.01 632.75C913.84 625.48 909.86 609.72 917.12 597.54C924.38 585.36 940.14 581.38 952.31 588.64Z" fill="url(#paint21_radial_31_1107)"/>
<path d="M690.89 597.54C698.15 609.72 694.17 625.48 682 632.75C669.83 640.02 654.07 636.03 646.81 623.85C639.55 611.67 643.53 595.91 655.7 588.64C667.87 581.37 683.62 585.36 690.89 597.54Z" fill="url(#paint22_radial_31_1107)"/>
<path d="M569.05 789.17C554.88 789.17 543.39 777.67 543.39 763.49C543.39 749.31 554.88 737.81 569.05 737.81C583.22 737.81 594.71 749.31 594.71 763.49C594.71 777.67 583.22 789.17 569.05 789.17Z" fill="url(#paint23_radial_31_1107)"/>
<path d="M871.34 702.93V699.23C882.38 682.14 889.88 660.68 889.88 637.11C889.88 613.54 886.84 588.76 873.45 568.32C858.47 545.47 834.12 534.1 803.62 534.1C773.12 534.1 748.78 545.47 733.8 568.32C720.41 588.76 717.37 614.29 717.37 637.11C717.37 659.93 724.55 682.97 735.91 700.59V702.93L619 770.51V963.95L803.63 1070.67L988.26 963.95V770.51L871.36 702.93H871.34ZM959.7 947.47L914.04 973.86V857.98L884.51 990.93L803.61 1037.69L803.59 1037.71L725.32 992.47L695.46 857.98V975.2L647.47 947.47V786.97L764.38 719.39V691.48C764.38 691.48 764.35 691.45 764.33 691.42L764.36 691.73L763.42 690.24C763.12 689.84 762.83 689.42 762.53 689.01C762.44 688.87 762.33 688.73 762.24 688.61C761.65 687.8 761.08 686.98 760.53 686.14C760.47 686.06 760.4 685.97 760.35 685.87C759.76 684.98 759.18 684.07 758.62 683.14C758.61 683.12 758.61 683.11 758.6 683.08C757.57 681.39 756.59 679.67 755.66 677.88L736.57 647.51L746.04 628.16C747.24 601.76 754.15 580.34 772.56 569.77C772.61 569.75 772.64 569.72 772.69 569.7C773.51 569.24 774.35 568.79 775.22 568.37C775.34 568.31 775.45 568.25 775.57 568.21C776.37 567.82 777.19 567.45 778.04 567.1C778.2 567.03 778.38 566.96 778.55 566.89C779.35 566.58 780.17 566.28 781.01 565.99C781.23 565.92 781.44 565.84 781.66 565.77C782.48 565.5 783.31 565.26 784.16 565.03C784.41 564.96 784.67 564.88 784.92 564.82C785.75 564.6 786.61 564.4 787.47 564.22C787.76 564.15 788.04 564.09 788.33 564.03C789.2 563.86 790.09 563.71 790.99 563.57C791.29 563.51 791.59 563.47 791.89 563.42C792.81 563.29 793.76 563.18 794.72 563.07C795.02 563.05 795.32 563 795.62 562.98C796.65 562.89 797.71 562.82 798.78 562.76C799.03 562.75 799.28 562.73 799.53 562.71C800.85 562.65 802.2 562.62 803.59 562.62H803.61C803.9 562.62 804.18 562.63 804.47 562.63C805.54 562.64 806.62 562.66 807.66 562.71C808.4 562.73 809.12 562.8 809.84 562.85C810.39 562.88 810.96 562.92 811.5 562.97C812.32 563.05 813.11 563.14 813.89 563.25C814.32 563.3 814.76 563.34 815.18 563.4C816.01 563.52 816.82 563.67 817.62 563.8C817.97 563.87 818.32 563.92 818.67 563.99C819.51 564.15 820.32 564.35 821.13 564.53C821.41 564.6 821.71 564.67 822 564.74C822.83 564.95 823.63 565.19 824.44 565.42C824.67 565.5 824.91 565.56 825.14 565.64C825.96 565.89 826.77 566.18 827.56 566.47C827.74 566.54 827.94 566.61 828.13 566.68C828.94 567 829.74 567.34 830.52 567.69C830.66 567.75 830.8 567.82 830.94 567.88C831.75 568.25 832.53 568.64 833.31 569.06L833.59 569.2C834.4 569.64 835.18 570.09 835.95 570.56C836 570.58 836.03 570.62 836.08 570.64C854.1 581.93 860.48 604.19 861.24 631.31L861.29 631.39L869.18 647.51L853.75 672.04L853.62 672.25C850.64 678.82 846.95 684.84 842.79 690.14V719.39L959.7 786.97V947.47Z" fill="white"/>
<path d="M842.78 719.4V690.15C846.94 684.85 850.63 678.83 853.61 672.26L853.74 672.05L869.17 647.52L861.28 631.4L861.23 631.32C860.47 604.2 854.09 581.94 836.07 570.65C836.02 570.63 835.99 570.59 835.94 570.57C835.18 570.1 834.39 569.64 833.58 569.21L833.3 569.07C832.53 568.65 831.74 568.26 830.93 567.89C830.79 567.83 830.65 567.76 830.51 567.7C829.72 567.35 828.93 567.02 828.12 566.69C827.94 566.62 827.74 566.55 827.55 566.48C826.76 566.19 825.96 565.9 825.13 565.65C824.9 565.57 824.66 565.51 824.43 565.43C823.62 565.2 822.82 564.96 821.99 564.75C821.7 564.68 821.4 564.61 821.12 564.54C820.31 564.35 819.5 564.16 818.66 564C818.31 563.93 817.96 563.88 817.61 563.81C816.81 563.67 816 563.52 815.17 563.41C814.74 563.35 814.3 563.31 813.88 563.26C813.09 563.16 812.31 563.06 811.49 562.98C810.95 562.93 810.38 562.9 809.83 562.86C809.1 562.81 808.39 562.74 807.65 562.72C806.61 562.67 805.53 562.65 804.46 562.64C804.17 562.64 803.89 562.63 803.6 562.63H803.58C802.19 562.63 800.84 562.66 799.52 562.72C799.27 562.73 799.02 562.75 798.77 562.77C797.71 562.83 796.64 562.9 795.61 562.99C795.31 563.01 795.01 563.06 794.71 563.08C793.75 563.18 792.8 563.3 791.88 563.43C791.58 563.48 791.28 563.52 790.98 563.58C790.08 563.72 789.19 563.87 788.32 564.04C788.03 564.1 787.75 564.16 787.46 564.23C786.59 564.42 785.74 564.61 784.91 564.83C784.66 564.89 784.4 564.97 784.15 565.04C783.31 565.27 782.47 565.51 781.65 565.78C781.43 565.85 781.22 565.93 781 566C780.16 566.29 779.34 566.59 778.54 566.9C778.37 566.97 778.19 567.04 778.03 567.11C777.17 567.46 776.35 567.83 775.56 568.22C775.44 568.27 775.33 568.32 775.21 568.38C774.34 568.8 773.5 569.25 772.68 569.71C772.63 569.73 772.6 569.76 772.55 569.78C754.14 580.35 747.23 601.77 746.03 628.17L736.56 647.52L755.65 677.89C756.57 679.68 757.56 681.41 758.59 683.09C758.6 683.11 758.6 683.12 758.61 683.15C759.18 684.08 759.75 684.99 760.34 685.88C760.4 685.97 760.47 686.07 760.52 686.15C761.07 686.99 761.64 687.82 762.23 688.62C762.32 688.75 762.43 688.89 762.52 689.02C762.82 689.42 763.11 689.84 763.41 690.25L764.35 691.74L764.32 691.43C764.32 691.43 764.34 691.46 764.37 691.49V719.4L647.46 786.98V947.48L695.45 975.21V857.99L725.31 992.48L803.58 1037.72L803.6 1037.7L884.5 990.94L914.03 857.99V973.87L959.69 947.48V786.98L842.78 719.4ZM803.96 898.05C770.1 898.05 742.65 870.58 742.65 836.7C742.65 802.82 770.1 775.36 803.96 775.36C837.82 775.36 865.26 802.83 865.26 836.7C865.26 870.57 837.81 898.05 803.96 898.05Z" fill="#404E57"/>
<path fill-rule="evenodd" clip-rule="evenodd" d="M760.42 793.25C755 798.65 750.58 805.06 747.49 812.17L674.16 771.39L697.18 758.09L760.42 793.25Z" fill="url(#paint24_linear_31_1107)"/>
<path fill-rule="evenodd" clip-rule="evenodd" d="M847.41 793.25C852.83 798.65 857.25 805.06 860.34 812.17L933.67 771.39L910.65 758.09L847.41 793.25Z" fill="url(#paint25_linear_31_1107)"/>
<path d="M842.121 836.7C842.121 857.79 825.041 874.89 803.961 874.89C782.881 874.89 765.801 857.79 765.801 836.7C765.801 815.61 782.881 798.52 803.961 798.52C825.041 798.52 842.121 815.62 842.121 836.7Z" fill="url(#paint26_linear_31_1107)"/>
<path d="M803.96 775.35C770.1 775.35 742.65 802.81 742.65 836.7C742.65 870.59 770.1 898.05 803.96 898.05C837.82 898.05 865.26 870.58 865.26 836.7C865.26 802.82 837.81 775.35 803.96 775.35ZM803.96 875.22C782.7 875.22 765.47 857.97 765.47 836.7C765.47 815.43 782.7 798.18 803.96 798.18C825.22 798.18 842.45 815.43 842.45 836.7C842.45 857.97 825.22 875.22 803.96 875.22Z" fill="url(#paint27_radial_31_1107)"/>
<path fill-rule="evenodd" clip-rule="evenodd" d="M765.799 948.14V1015.85H765.739L742.989 1002.7V948.14H765.799Z" fill="url(#paint28_linear_31_1107)"/>
<path d="M774.35 943.02C774.35 954.05 765.41 962.99 754.39 962.99C743.37 962.99 734.43 954.05 734.43 943.02C734.43 931.99 743.37 923.05 754.39 923.05C765.41 923.05 774.35 931.99 774.35 943.02Z" fill="url(#paint29_radial_31_1107)"/>
<path fill-rule="evenodd" clip-rule="evenodd" d="M865.59 926.279V1001.89L842.77 1015.09V926.279H865.59Z" fill="url(#paint30_linear_31_1107)"/>
<path d="M874.14 926.28C874.14 937.31 865.2 946.25 854.18 946.25C843.16 946.25 834.22 937.31 834.22 926.28C834.22 915.25 843.16 906.31 854.18 906.31C865.2 906.31 874.14 915.25 874.14 926.28Z" fill="url(#paint31_radial_31_1107)"/>
<path fill-rule="evenodd" clip-rule="evenodd" d="M815.019 981.989V1031.13L803.619 1037.72H803.569L792.209 1031.15V981.989H815.019Z" fill="url(#paint32_linear_31_1107)"/>
<path d="M823.58 980.72C823.58 991.75 814.64 1000.69 803.62 1000.69C792.6 1000.69 783.66 991.75 783.66 980.72C783.66 969.69 792.6 960.75 803.62 960.75C814.64 960.75 823.58 969.69 823.58 980.72Z" fill="url(#paint33_radial_31_1107)"/>
<defs>
<linearGradient id="paint0_linear_31_1107" x1="802.55" y1="1109.4" x2="802.55" y2="476.32" gradientUnits="userSpaceOnUse">
<stop stop-color="#404E57"/>
<stop offset="1" stop-color="#1D282C"/>
</linearGradient>
<linearGradient id="paint1_linear_31_1107" x1="803" y1="439.106" x2="803" y2="1178.31" gradientUnits="userSpaceOnUse">
<stop stop-color="#404E57"/>
<stop offset="1" stop-color="#1D282C"/>
</linearGradient>
<linearGradient id="paint2_linear_31_1107" x1="802.5" y1="1110" x2="802.5" y2="475.333" gradientUnits="userSpaceOnUse">
<stop stop-color="#404E57"/>
<stop offset="1" stop-color="#1D282C"/>
</linearGradient>
<linearGradient id="paint3_linear_31_1107" x1="662.18" y1="704.57" x2="618.62" y2="729.24" gradientUnits="userSpaceOnUse">
<stop stop-color="#404E57"/>
<stop offset="1" stop-color="#1D282C"/>
</linearGradient>
<linearGradient id="paint4_linear_31_1107" x1="652.559" y1="698.51" x2="604.699" y2="662.53" gradientUnits="userSpaceOnUse">
<stop stop-color="#1D282C"/>
<stop offset="1" stop-color="#404E57"/>
</linearGradient>
<linearGradient id="paint5_linear_31_1107" x1="623.94" y1="707.88" x2="623.94" y2="683.45" gradientUnits="userSpaceOnUse">
<stop stop-color="#D82C3C"/>
<stop offset="1" stop-color="#640E16"/>
</linearGradient>
<linearGradient id="paint6_linear_31_1107" x1="1010.85" y1="959.13" x2="1081.26" y2="999.01" gradientUnits="userSpaceOnUse">
<stop stop-color="#1D282C"/>
<stop offset="1" stop-color="#404E57"/>
</linearGradient>
<linearGradient id="paint7_linear_31_1107" x1="967.45" y1="1006.49" x2="834.98" y2="1081.52" gradientUnits="userSpaceOnUse">
<stop stop-color="#1D282C"/>
<stop offset="0.998958" stop-color="#404E57"/>
</linearGradient>
<linearGradient id="paint8_linear_31_1107" x1="975.111" y1="986.89" x2="960.401" y2="995.37" gradientUnits="userSpaceOnUse">
<stop stop-color="#404E57"/>
<stop offset="1" stop-color="#1D282C"/>
</linearGradient>
<linearGradient id="paint9_linear_31_1107" x1="980.62" y1="985.79" x2="980.62" y2="1010.22" gradientUnits="userSpaceOnUse">
<stop stop-color="#D82C3C"/>
<stop offset="1" stop-color="#640E16"/>
</linearGradient>
<linearGradient id="paint10_linear_31_1107" x1="587.46" y1="975.53" x2="719.94" y2="1050.56" gradientUnits="userSpaceOnUse">
<stop stop-color="#1D282C"/>
<stop offset="1" stop-color="#404E57"/>
</linearGradient>
<linearGradient id="paint11_linear_31_1107" x1="563.93" y1="960.52" x2="526.85" y2="981.91" gradientUnits="userSpaceOnUse">
<stop stop-color="#404E57"/>
<stop offset="1" stop-color="#1D282C"/>
</linearGradient>
<linearGradient id="paint12_linear_31_1107" x1="568.58" y1="972.16" x2="568.58" y2="947.73" gradientUnits="userSpaceOnUse">
<stop stop-color="#D82C3C"/>
<stop offset="1" stop-color="#640E16"/>
</linearGradient>
<linearGradient id="paint13_linear_31_1107" x1="948.52" y1="679.42" x2="885.2" y2="643.08" gradientUnits="userSpaceOnUse">
<stop stop-color="#404E57"/>
<stop offset="1" stop-color="#1D282C"/>
</linearGradient>
<linearGradient id="paint14_linear_31_1107" x1="919.63" y1="741.32" x2="998.88" y2="703.35" gradientUnits="userSpaceOnUse">
<stop stop-color="#1D282C"/>
<stop offset="1" stop-color="#404E57"/>
</linearGradient>
<linearGradient id="paint15_linear_31_1107" x1="961.81" y1="677.19" x2="961.81" y2="701.62" gradientUnits="userSpaceOnUse">
<stop stop-color="#D82C3C"/>
<stop offset="1" stop-color="#640E16"/>
</linearGradient>
<linearGradient id="paint16_linear_31_1107" x1="569.05" y1="687.02" x2="569.05" y2="948.81" gradientUnits="userSpaceOnUse">
<stop stop-color="white"/>
<stop offset="0.29" stop-color="#404E57"/>
<stop offset="1" stop-color="white"/>
</linearGradient>
<linearGradient id="paint17_linear_31_1107" x1="551.01" y1="679.62" x2="679.18" y2="602.97" gradientUnits="userSpaceOnUse">
<stop stop-color="#404E57"/>
<stop offset="1" stop-color="white"/>
</linearGradient>
<linearGradient id="paint18_linear_31_1107" x1="1038.96" y1="687.02" x2="1038.96" y2="950.95" gradientUnits="userSpaceOnUse">
<stop stop-color="white"/>
<stop offset="0.71" stop-color="#404E57"/>
<stop offset="1" stop-color="white"/>
</linearGradient>
<linearGradient id="paint19_linear_31_1107" x1="1039.33" y1="601.59" x2="954.4" y2="644.44" gradientUnits="userSpaceOnUse">
<stop stop-color="#404E57"/>
<stop offset="1" stop-color="white"/>
</linearGradient>
<radialGradient id="paint20_radial_31_1107" cx="0" cy="0" r="1" gradientUnits="userSpaceOnUse" gradientTransform="translate(1021.51 858.241) rotate(-90) scale(52.1188 52.1188)">
<stop stop-color="white"/>
<stop offset="1" stop-color="#404E57"/>
</radialGradient>
<radialGradient id="paint21_radial_31_1107" cx="0" cy="0" r="1" gradientUnits="userSpaceOnUse" gradientTransform="translate(926.499 602.76) rotate(-59.2) scale(52.1188 52.1188)">
<stop stop-color="white"/>
<stop offset="1" stop-color="#404E57"/>
</radialGradient>
<radialGradient id="paint22_radial_31_1107" cx="0" cy="0" r="1" gradientUnits="userSpaceOnUse" gradientTransform="translate(675.033 602.101) rotate(-120.8) scale(52.1188)">
<stop stop-color="white"/>
<stop offset="1" stop-color="#404E57"/>
</radialGradient>
<radialGradient id="paint23_radial_31_1107" cx="0" cy="0" r="1" gradientUnits="userSpaceOnUse" gradientTransform="translate(580.758 771.912) rotate(90) scale(52.1188 52.1188)">
<stop stop-color="white"/>
<stop offset="1" stop-color="#404E57"/>
</radialGradient>
<linearGradient id="paint24_linear_31_1107" x1="762.63" y1="806.35" x2="697.05" y2="771.81" gradientUnits="userSpaceOnUse">
<stop stop-color="#404E57"/>
<stop offset="1" stop-color="white"/>
</linearGradient>
<linearGradient id="paint25_linear_31_1107" x1="845.21" y1="806.35" x2="910.79" y2="771.81" gradientUnits="userSpaceOnUse">
<stop stop-color="#404E57"/>
<stop offset="1" stop-color="white"/>
</linearGradient>
<linearGradient id="paint26_linear_31_1107" x1="803.961" y1="806.05" x2="803.961" y2="874.88" gradientUnits="userSpaceOnUse">
<stop stop-color="#D82C3C"/>
<stop offset="1" stop-color="#640E16"/>
</linearGradient>
<radialGradient id="paint27_radial_31_1107" cx="0" cy="0" r="1" gradientUnits="userSpaceOnUse" gradientTransform="translate(805.503 803.915) scale(143.956 143.956)">
<stop stop-color="white"/>
<stop offset="1" stop-color="#404E57"/>
</radialGradient>
<linearGradient id="paint28_linear_31_1107" x1="754.399" y1="947.51" x2="754.399" y2="1004.35" gradientUnits="userSpaceOnUse">
<stop stop-color="#404E57"/>
<stop offset="1" stop-color="white"/>
</linearGradient>
<radialGradient id="paint29_radial_31_1107" cx="0" cy="0" r="1" gradientUnits="userSpaceOnUse" gradientTransform="translate(756.144 932.543) scale(40.5304 40.5304)">
<stop stop-color="white"/>
<stop offset="1" stop-color="#404E57"/>
</radialGradient>
<linearGradient id="paint30_linear_31_1107" x1="854.18" y1="926.499" x2="854.18" y2="1001.06" gradientUnits="userSpaceOnUse">
<stop stop-color="#404E57"/>
<stop offset="1" stop-color="white"/>
</linearGradient>
<radialGradient id="paint31_radial_31_1107" cx="0" cy="0" r="1" gradientUnits="userSpaceOnUse" gradientTransform="translate(856.311 915.757) scale(40.5304 40.5304)">
<stop stop-color="white"/>
<stop offset="1" stop-color="#404E57"/>
</radialGradient>
<linearGradient id="paint32_linear_31_1107" x1="803.619" y1="984.449" x2="803.619" y2="1031.23" gradientUnits="userSpaceOnUse">
<stop stop-color="#404E57"/>
<stop offset="1" stop-color="white"/>
</linearGradient>
<radialGradient id="paint33_radial_31_1107" cx="0" cy="0" r="1" gradientUnits="userSpaceOnUse" gradientTransform="translate(805.549 970.359) scale(40.5304 40.5304)">
<stop stop-color="white"/>
<stop offset="1" stop-color="#404E57"/>
</radialGradient>
</defs>
</svg>
